<?xml version="1.0" encoding="UTF-8" standalone="no"?>
<!-- Created with Inkscape (http://www.inkscape.org/) -->

<svg
   xmlns:dc="http://purl.org/dc/elements/1.1/"
   xmlns:cc="http://creativecommons.org/ns#"
   xmlns:rdf="http://www.w3.org/1999/02/22-rdf-syntax-ns#"
   xmlns:svg="http://www.w3.org/2000/svg"
   xmlns="http://www.w3.org/2000/svg"
   xmlns:sodipodi="http://sodipodi.sourceforge.net/DTD/sodipodi-0.dtd"
   xmlns:inkscape="http://www.inkscape.org/namespaces/inkscape"
   width="744.09448819"
   height="1052.3622047"
   id="svg2"
   version="1.1"
   inkscape:version="0.48.2 r9819"
   sodipodi:docname="cost_both.svg">
  <defs
     id="defs4">
    <marker
       inkscape:stockid="Arrow2Lend"
       orient="auto"
       refY="0.0"
       refX="0.0"
       id="Arrow2Lend"
       style="overflow:visible;">
      <path
         id="path3781"
         style="font-size:12.0;fill-rule:evenodd;stroke-width:0.62500000;stroke-linejoin:round;"
         d="M 8.7185878,4.0337352 L -2.2072895,0.016013256 L 8.7185884,-4.0017078 C 6.9730900,-1.6296469 6.9831476,1.6157441 8.7185878,4.0337352 z "
         transform="scale(1.1) rotate(180) translate(1,0)" />
    </marker>
    <marker
       inkscape:stockid="Arrow1Lend"
       orient="auto"
       refY="0.0"
       refX="0.0"
       id="Arrow1Lend"
       style="overflow:visible;">
      <path
         id="path3763"
         d="M 0.0,0.0 L 5.0,-5.0 L -12.5,0.0 L 5.0,5.0 L 0.0,0.0 z "
         style="fill-rule:evenodd;stroke:#000000;stroke-width:1.0pt;marker-start:none;"
         transform="scale(0.8) rotate(180) translate(12.5,0)" />
    </marker>
  </defs>
  <sodipodi:namedview
     id="base"
     pagecolor="#ffffff"
     bordercolor="#666666"
     borderopacity="1.0"
     inkscape:pageopacity="0.0"
     inkscape:pageshadow="2"
     inkscape:zoom="3.959798"
     inkscape:cx="113.19582"
     inkscape:cy="771.80009"
     inkscape:document-units="px"
     inkscape:current-layer="layer1"
     showgrid="true"
     inkscape:window-width="1238"
     inkscape:window-height="756"
     inkscape:window-x="42"
     inkscape:window-y="0"
     inkscape:window-maximized="1">
    <inkscape:grid
       type="xygrid"
       id="grid2985" />
  </sodipodi:namedview>
  <metadata
     id="metadata7">
    <rdf:RDF>
      <cc:Work
         rdf:about="">
        <dc:format>image/svg+xml</dc:format>
        <dc:type
           rdf:resource="http://purl.org/dc/dcmitype/StillImage" />
        <dc:title></dc:title>
      </cc:Work>
    </rdf:RDF>
  </metadata>
  <g
     inkscape:label="Layer 1"
     inkscape:groupmode="layer"
     id="layer1">
    <path
       style="fill:none;stroke:#000000;stroke-width:1px;stroke-linecap:butt;stroke-linejoin:miter;stroke-opacity:1;marker-end:url(#Arrow2Lend)"
       d="m 50,307.36218 0,-85"
       id="path2987"
       inkscape:connector-curvature="0" />
    <path
       style="fill:none;stroke:#000000;stroke-width:1px;stroke-linecap:butt;stroke-linejoin:miter;stroke-opacity:1;marker-end:url(#Arrow2Lend)"
       d="m 50,307.36218 140,0"
       id="path4225"
       inkscape:connector-curvature="0" />
    <g
       id="g4413"
       transform="matrix(0.53718069,0,0,0.51860385,78.563862,157.96297)">
      <path
         transform="matrix(1,0,0,1.3333333,0,-105.78739)"
         d="m 210,309.86218 c 0,4.14214 -2.23858,7.5 -5,7.5 -2.76142,0 -5,-3.35786 -5,-7.5 0,-4.14213 2.23858,-7.5 5,-7.5 2.76142,0 5,3.35787 5,7.5 z"
         sodipodi:ry="7.5"
         sodipodi:rx="5"
         sodipodi:cy="309.86218"
         sodipodi:cx="205"
         id="path4409"
         style="fill:none;stroke:#000000;stroke-width:1px;stroke-linecap:butt;stroke-linejoin:miter;stroke-opacity:1"
         sodipodi:type="arc" />
      <path
         inkscape:connector-curvature="0"
         id="path4411"
         d="m 200,307.36218 10,0"
         style="fill:none;stroke:#000000;stroke-width:1px;stroke-linecap:butt;stroke-linejoin:miter;stroke-opacity:1" />
    </g>
    <path
       style="fill:none;stroke:#0000ff;stroke-width:0.75000000000000000;stroke-linecap:butt;stroke-linejoin:miter;stroke-opacity:1;stroke-miterlimit:4;stroke-dasharray:none"
       d="m 55,257.36218 c 0,0 9.248593,-8.25861 15,-10 3.190307,-0.96595 7.061085,-1.57286 10,0 5.298205,2.83551 7.359826,9.6018 10,15 2.315585,4.73454 0.724378,11.91831 5,15 4.056211,2.92355 10.74675,-2.62866 15,0 3.17019,1.95928 1.32134,9.40304 5,10 4.65317,0.75511 5.64479,-8.19601 10,-10 3.0796,-1.27561 7.1645,-1.75244 10,0 3.17019,1.95928 2.82091,6.97668 5,10 2.75635,3.82423 5.64479,8.19601 10,10 3.0796,1.27561 7.1645,1.75244 10,0 3.17019,-1.95928 3.84751,-6.4559 5,-10 3.1351,-9.641 0.46618,-39.06764 5,-30 5,10 2.22915,10.51668 5,15 1.23916,2.005 5,5 5,5"
       id="path4417"
       inkscape:connector-curvature="0"
       sodipodi:nodetypes="caaaaaaaaaaaasac" />
    <path
       sodipodi:nodetypes="caaaaaaaaaaaasac"
       inkscape:connector-curvature="0"
       id="path4419"
       d="m 53,255.36218 c 0,0 6.074309,-6.32334 10,-8 4.638868,-1.98125 10.769916,-4.74788 15,-2 4.953317,3.21769 3.232457,11.36399 5,17 1.577158,5.02895 0.576176,12.13512 5,15 5.623654,3.6419 14.24712,-5.43414 20,-2 3.72081,2.22111 0.71531,11.35255 5,12 5.14839,0.77797 5.28475,-9.79149 10,-12 3.01863,-1.41385 7.2265,-1.849 10,0 3.60555,2.4037 3.19664,8.05974 5,12 1.55094,3.38873 2.36477,7.36477 5,10 2.63523,2.63523 6.46447,6.17851 10,5 7.07107,-2.35702 7.63146,-12.93278 10,-20 2.90858,-8.67859 0.46618,-36.06764 5,-27 5,10 2.22915,10.51668 5,15 1.23916,2.005 5,5 5,5"
       style="fill:none;stroke:#ff0000;stroke-width:1;stroke-linecap:butt;stroke-linejoin:miter;stroke-miterlimit:4;stroke-opacity:1;stroke-dasharray:2, 1;stroke-dashoffset:0" />
    <path
       style="fill:none;stroke:#ff0000;stroke-width:1;stroke-linecap:butt;stroke-linejoin:miter;stroke-opacity:1;stroke-miterlimit:4;stroke-dasharray:1,1;stroke-dashoffset:0"
       d="m 150,312.36218 0,-75"
       id="path4859"
       inkscape:connector-curvature="0" />
    <path
       style="fill:none;stroke:#0000ff;stroke-width:1;stroke-linecap:butt;stroke-linejoin:miter;stroke-opacity:1;stroke-miterlimit:4;stroke-dasharray:1, 1;stroke-dashoffset:0"
       d="m 155,312.36218 0,-75"
       id="path4861"
       inkscape:connector-curvature="0" />
  </g>
</svg>
