<?xml version="1.0" encoding="UTF-8" standalone="no"?>
<!-- Created with Inkscape (http://www.inkscape.org/) -->

<svg
   xmlns:dc="http://purl.org/dc/elements/1.1/"
   xmlns:cc="http://creativecommons.org/ns#"
   xmlns:rdf="http://www.w3.org/1999/02/22-rdf-syntax-ns#"
   xmlns:svg="http://www.w3.org/2000/svg"
   xmlns="http://www.w3.org/2000/svg"
   xmlns:sodipodi="http://sodipodi.sourceforge.net/DTD/sodipodi-0.dtd"
   xmlns:inkscape="http://www.inkscape.org/namespaces/inkscape"
   width="744.09448819"
   height="1052.3622047"
   id="svg2"
   version="1.1"
   inkscape:version="0.48.3.1 r9886"
   sodipodi:docname="New document 1">
  <sodipodi:namedview
     id="base"
     pagecolor="#ffffff"
     bordercolor="#666666"
     borderopacity="1.0"
     inkscape:pageopacity="0.0"
     inkscape:pageshadow="2"
     inkscape:zoom="3.959798"
     inkscape:cx="383.26738"
     inkscape:cy="686.14896"
     inkscape:document-units="px"
     inkscape:current-layer="layer1"
     showgrid="true"
     inkscape:window-width="1573"
     inkscape:window-height="1028"
     inkscape:window-x="0"
     inkscape:window-y="143"
     inkscape:window-maximized="0">
    <inkscape:grid
       id="grid2985"
       type="xygrid" />
  </sodipodi:namedview>
  <defs
     id="defs4">
    <marker
       style="overflow:visible;"
       id="Arrow1Lend"
       refX="0.0"
       refY="0.0"
       orient="auto"
       inkscape:stockid="Arrow1Lend">
      <path
         transform="scale(0.8) rotate(180) translate(12.5,0)"
         style="fill-rule:evenodd;stroke:#000000;stroke-width:1.0pt;"
         d="M 0.0,0.0 L 5.0,-5.0 L -12.5,0.0 L 5.0,5.0 L 0.0,0.0 z "
         id="path3843" />
    </marker>
    <marker
       style="overflow:visible"
       id="Arrow1Lstart"
       refX="0.0"
       refY="0.0"
       orient="auto"
       inkscape:stockid="Arrow1Lstart">
      <path
         transform="scale(0.8) translate(12.5,0)"
         style="fill-rule:evenodd;stroke:#000000;stroke-width:1.0pt"
         d="M 0.0,0.0 L 5.0,-5.0 L -12.5,0.0 L 5.0,5.0 L 0.0,0.0 z "
         id="path3840" />
    </marker>
  </defs>
  <metadata
     id="metadata7">
    <rdf:RDF>
      <cc:Work
         rdf:about="">
        <dc:format>image/svg+xml</dc:format>
        <dc:type
           rdf:resource="http://purl.org/dc/dcmitype/StillImage" />
        <dc:title></dc:title>
      </cc:Work>
    </rdf:RDF>
  </metadata>
  <g
     id="layer1"
     inkscape:groupmode="layer"
     inkscape:label="Layer 1">
    <rect
       y="317.36218"
       x="340"
       height="80"
       width="85"
       id="rect2987"
       style="fill:none;stroke:#000000;stroke-width:0.76564151px;stroke-linecap:butt;stroke-linejoin:miter;stroke-opacity:1" />
    <g
       id="g3764"
       transform="translate(50.597244,18.813757)">
      <g
         word-spacing="normal"
         letter-spacing="normal"
         font-size-adjust="none"
         font-stretch="normal"
         font-weight="normal"
         font-variant="normal"
         font-style="normal"
         stroke-miterlimit="10.433"
         xml:space="preserve"
         transform="matrix(1.0629921,0,0,-1.0629921,-186.02362,789.27165)"
         id="content"
         style="font-style:normal;font-variant:normal;font-weight:normal;font-stretch:normal;letter-spacing:normal;word-spacing:normal;text-anchor:start;fill:none;stroke:#000000;stroke-linecap:butt;stroke-linejoin:miter;stroke-miterlimit:10.43299961;stroke-opacity:1;stroke-dasharray:none;stroke-dashoffset:0"><path
           id="path3767"
           d="m 474.71,434.04 0.13,-0.62 0.13,-0.64 0.14,-0.66 0.14,-0.68 0.15,-0.7 0.15,-0.72 0.32,-1.47 0.34,-1.52 0.35,-1.55 0.38,-1.57 0.39,-1.58 0.41,-1.56 0.43,-1.55 0.44,-1.51 0.47,-1.46 0.23,-0.71 0.24,-0.7 0.25,-0.67 0.25,-0.65 0.25,-0.64 0.26,-0.6 0.26,-0.59 0.26,-0.55 c 1.1,-2.14 1.64,-3.25 2.14,-3.25 0.21,0 0.3,0 1.19,0.9 3.8,3.64 6.39,6.53 9.88,10.52 l 10.9,12.7 c -0.7,-4.23 -2.48,-15.45 -2.48,-21.28 0,-1.34 0.04,-2.64 0.18,-3.98 0.07,-0.55 0.25,-1.99 2.35,-1.99 2.09,0 5.87,2.19 5.87,3.19 0,0.3 -0.29,0.34 -0.43,0.34 -0.66,0 -1.64,-0.45 -2.21,-0.79 -1.18,0.14 -1.28,0.93 -1.39,2.09 -0.14,1.59 -0.14,3.09 -0.14,3.28 0,5.53 2.19,20.63 3.63,26.81 0.06,0.35 0.11,0.44 0.11,0.85 0,0.2 -0.05,0.75 -0.41,0.75 -0.2,0 -0.25,-0.05 -1.19,-1.16 -4.69,-5.67 -19.23,-23.11 -24.17,-27.3 -1.23,2.64 -2.14,4.54 -3.87,11.52 -1.46,5.62 -2.3,9.77 -3.15,14.59 -0.15,0.71 -0.4,2.05 -0.4,2.14 -0.14,0.25 -0.39,0.25 -0.55,0.25 -0.89,0 -2.98,-1.09 -3.14,-2.14 -0.59,-4.18 -1.59,-10.76 -5.08,-20.28 -3.98,-10.61 -5.08,-10.61 -6.03,-10.61 -0.64,0 -2.48,0.39 -3.58,1.39 -0.25,0.25 -0.36,0.25 -0.45,0.25 -0.7,0 -1.8,-2.23 -1.8,-3.64 0,-0.43 0,-1.04 1.6,-1.89 1.25,-0.64 2.43,-0.69 2.68,-0.69 3.1,0 6.04,7.13 7.04,9.66 2.34,5.63 5.12,13.5 6.53,20.67 z"
           inkscape:connector-curvature="0"
           style="fill:#000000;stroke-width:0" /></g>    </g>
    <g
       id="g3824">
      <path
         transform="translate(30,-10.5)"
         sodipodi:type="arc"
         style="fill:none;stroke:#000000;stroke-opacity:1"
         id="path3779"
         sodipodi:cx="275"
         sodipodi:cy="284.86218"
         sodipodi:rx="20"
         sodipodi:ry="7.5"
         d="m 295,284.86218 a 20,7.5 0 1 1 -40,0 20,7.5 0 1 1 40,0 z" />
      <path
         d="m 295,284.86218 a 20,7.5 0 1 1 -40,0 20,7.5 0 1 1 40,0 z"
         sodipodi:ry="7.5"
         sodipodi:rx="20"
         sodipodi:cy="284.86218"
         sodipodi:cx="275"
         id="path3781"
         style="fill:none;stroke:#000000;stroke-opacity:1"
         sodipodi:type="arc"
         transform="translate(30,14.5)" />
      <path
         inkscape:connector-curvature="0"
         id="path3783"
         d="m 325,274.36218 0,25"
         style="fill:none;stroke:#000000;stroke-width:1px;stroke-linecap:butt;stroke-linejoin:miter;stroke-opacity:1" />
      <path
         style="fill:none;stroke:#000000;stroke-width:1px;stroke-linecap:butt;stroke-linejoin:miter;stroke-opacity:1"
         d="m 285,274.36218 0,25"
         id="path3785"
         inkscape:connector-curvature="0" />
      <rect
         style="fill:#ffffff;fill-opacity:1;stroke:none"
         id="rect3822"
         width="38.885662"
         height="10"
         x="285.50891"
         y="289.36218" />
      <g
         id="g3801"
         transform="matrix(0.32696287,0,0,0.43130782,199.98894,146.34284)">
        <g
           word-spacing="normal"
           letter-spacing="normal"
           font-size-adjust="none"
           font-stretch="normal"
           font-weight="normal"
           font-variant="normal"
           font-style="normal"
           stroke-miterlimit="10.433"
           xml:space="preserve"
           transform="matrix(1.0629921,0,0,-1.0629921,-186.02362,789.27165)"
           id="g3803"
           style="font-style:normal;font-variant:normal;font-weight:normal;font-stretch:normal;letter-spacing:normal;word-spacing:normal;text-anchor:start;fill:none;stroke:#000000;stroke-linecap:butt;stroke-linejoin:miter;stroke-miterlimit:10.43299961;stroke-opacity:1;stroke-dasharray:none;stroke-dashoffset:0"><path
             id="path3805"
             d="m 463.44,410.09 -0.04,-0.18 -0.05,-0.17 -0.04,-0.16 -0.05,-0.15 -0.04,-0.15 -0.05,-0.13 -0.04,-0.13 -0.05,-0.12 -0.06,-0.11 -0.06,-0.11 -0.06,-0.1 -0.07,-0.09 -0.08,-0.09 -0.09,-0.07 -0.09,-0.08 -0.11,-0.06 -0.11,-0.07 -0.12,-0.05 -0.14,-0.05 -0.15,-0.05 -0.16,-0.04 -0.09,-0.02 -0.08,-0.01 -0.1,-0.02 -0.1,-0.02 -0.1,-0.01 -0.1,-0.01 -0.11,-0.01 -0.11,-0.02 -0.12,-0.01 -0.12,-0.01 -0.13,0 -0.13,-0.01 -0.13,-0.01 -0.15,0 -0.14,-0.01 -0.15,0 -0.16,-0.01 -0.16,0 -0.16,0 -0.17,0 -0.18,0 -0.18,0 c -0.84,0 -1.39,0 -1.39,-0.96 0,-0.59 0.44,-0.59 1.39,-0.59 h 16.48 l -0.89,1.55 h -5.62 c -0.7,0 -0.8,0 -1.11,0.04 -0.48,0.05 -0.64,0.1 -0.64,0.5 0,0.14 0,0.25 0.25,1.14 l 6.83,27.36 c 0.43,1.74 0.54,1.89 2.68,1.89 h 5.33 c 4.89,0 9.02,-2.64 9.02,-9.22 0,-2.43 -1,-10.6 -5.24,-16.09 -1.43,-1.84 -5.37,-5.62 -11.5,-5.62 l 0.89,-1.55 c 10.36,0 20.19,10.51 20.19,21.42 0,7.03 -4.23,12.61 -11.72,12.61 h -16.73 c -0.95,0 -1.5,0 -1.5,-0.95 0,-0.6 0.45,-0.6 1.45,-0.6 0.64,0 1.55,-0.04 2.14,-0.09 0.8,-0.11 1.1,-0.25 1.1,-0.8 0,-0.2 -0.05,-0.36 -0.21,-0.95 z"
             inkscape:connector-curvature="0"
             style="fill:#000000;stroke-width:0" /></g>      </g>
    </g>
    <path
       sodipodi:nodetypes="cac"
       inkscape:connector-curvature="0"
       id="path3834"
       d="m 305,307.36218 c 0,0 -8.02927,29.35535 0,40 7.30675,9.68678 35,10 35,10"
       style="fill:none;stroke:#000000;stroke-width:1px;stroke-linecap:butt;stroke-linejoin:miter;stroke-opacity:1;marker-end:url(#Arrow1Lend)" />
    <text
       sodipodi:linespacing="125%"
       id="text4466"
       y="382.36218"
       x="260"
       style="font-size:17px;font-style:normal;font-variant:normal;font-weight:normal;font-stretch:normal;text-align:start;line-height:125%;letter-spacing:0px;word-spacing:0px;writing-mode:lr-tb;text-anchor:start;fill:#000000;fill-opacity:1;stroke:none;font-family:Sans;-inkscape-font-specification:Sans"
       xml:space="preserve"><tspan
         y="382.36218"
         x="260"
         id="tspan4468"
         sodipodi:role="line">Learning</tspan></text>
    <g
       id="Expanded"
       transform="translate(445,266.36218)">
      <g
         id="g5">
        <g
           id="g7">
          <path
             id="path9"
             d="M 44,40 H 4 C 1.794,40 0,38.206 0,36 V 6 C 0,3.794 1.794,2 4,2 h 40 c 2.206,0 4,1.794 4,4 v 30 c 0,2.206 -1.794,4 -4,4 z M 4,4 C 2.897,4 2,4.897 2,6 v 30 c 0,1.103 0.897,2 2,2 h 40 c 1.103,0 2,-0.897 2,-2 V 6 C 46,4.897 45.103,4 44,4 H 4 z"
             inkscape:connector-curvature="0" />
        </g>
        <g
           id="g11">
          <path
             id="path13"
             d="M 38,46 H 10 C 9.448,46 9,45.552 9,45 9,44.448 9.448,44 10,44 h 28 c 0.552,0 1,0.448 1,1 0,0.552 -0.448,1 -1,1 z"
             inkscape:connector-curvature="0" />
        </g>
        <g
           id="g15">
          <path
             id="path17"
             d="M 31.02,46 C 31.013,46 31.007,46 31,46 H 17 c -0.321,0 -0.623,-0.154 -0.811,-0.416 -0.188,-0.261 -0.239,-0.596 -0.138,-0.901 l 2,-6 C 18.188,38.275 18.569,38 19,38 h 10 c 0.431,0 0.812,0.275 0.949,0.684 l 1.94,5.821 c 0.083,0.146 0.131,0.315 0.131,0.495 0,0.552 -0.448,1 -1,1 z M 18.387,44 H 29.613 L 28.28,40 h -8.559 l -1.334,4 z"
             inkscape:connector-curvature="0" />
        </g>
        <g
           id="g19">
          <path
             id="path21"
             d="M 44,32 H 4 V 6 H 44 V 32 z M 6,30 H 42 V 8 H 6 v 22 z"
             inkscape:connector-curvature="0" />
        </g>
        <g
           id="g23">
          <circle
             id="circle25"
             r="2"
             cy="35"
             cx="24"
             sodipodi:cx="24"
             sodipodi:cy="35"
             sodipodi:rx="2"
             sodipodi:ry="2"
             d="m 26,35 c 0,1.104569 -0.895431,2 -2,2 -1.104569,0 -2,-0.895431 -2,-2 0,-1.104569 0.895431,-2 2,-2 1.104569,0 2,0.895431 2,2 z" />
        </g>
      </g>
    </g>
    <path
       sodipodi:nodetypes="cac"
       inkscape:connector-curvature="0"
       id="path4499"
       d="m 470,312.36218 c 0,0 -8.60207,14.66044 -15,20 -8.58373,7.16378 -30,15 -30,15"
       style="fill:none;stroke:#000000;stroke-width:1px;stroke-linecap:butt;stroke-linejoin:miter;stroke-opacity:1;marker-end:url(#Arrow1Lend)" />
    <path
       sodipodi:nodetypes="caac"
       inkscape:connector-curvature="0"
       id="path4687"
       d="m 425,357.36218 c 0,0 19.97477,6.50747 30,5 7.3707,-1.10831 16.48298,-3.42838 20,-10 6.3404,-11.84714 -5,-40 -5,-40"
       style="fill:none;stroke:#000000;stroke-width:1px;stroke-linecap:butt;stroke-linejoin:miter;stroke-opacity:1;marker-end:url(#Arrow1Lend)" />
    <text
       xml:space="preserve"
       style="font-size:17px;font-style:normal;font-variant:normal;font-weight:normal;font-stretch:normal;text-align:start;line-height:125%;letter-spacing:0px;word-spacing:0px;writing-mode:lr-tb;text-anchor:start;fill:#000000;fill-opacity:1;stroke:none;font-family:Sans;-inkscape-font-specification:Sans"
       x="434"
       y="382.36218"
       id="text4972"
       sodipodi:linespacing="125%"><tspan
         sodipodi:role="line"
         id="tspan4974"
         x="434"
         y="382.36218">Inference</tspan></text>
    <text
       sodipodi:linespacing="125%"
       id="text4466-9"
       y="327.36218"
       x="445"
       style="font-size:17px;font-style:normal;font-variant:normal;font-weight:normal;font-stretch:normal;text-align:start;line-height:125%;letter-spacing:0px;word-spacing:0px;writing-mode:lr-tb;text-anchor:start;fill:#000000;fill-opacity:1;stroke:none;font-family:Sans;-inkscape-font-specification:Sans"
       xml:space="preserve"><tspan
         y="327.36218"
         x="445"
         id="tspan4468-9"
         sodipodi:role="line">?</tspan></text>
  </g>
</svg>
