<?xml version="1.0" encoding="UTF-8" standalone="no"?>
<!-- Created with Inkscape (http://www.inkscape.org/) -->

<svg
   xmlns:dc="http://purl.org/dc/elements/1.1/"
   xmlns:cc="http://creativecommons.org/ns#"
   xmlns:rdf="http://www.w3.org/1999/02/22-rdf-syntax-ns#"
   xmlns:svg="http://www.w3.org/2000/svg"
   xmlns="http://www.w3.org/2000/svg"
   xmlns:sodipodi="http://sodipodi.sourceforge.net/DTD/sodipodi-0.dtd"
   xmlns:inkscape="http://www.inkscape.org/namespaces/inkscape"
   width="744.09448819"
   height="1052.3622047"
   id="svg2"
   version="1.1"
   inkscape:version="0.48.2 r9819"
   sodipodi:docname="pipeline1.svg">
  <sodipodi:namedview
     id="base"
     pagecolor="#ffffff"
     bordercolor="#666666"
     borderopacity="1.0"
     inkscape:pageopacity="0.0"
     inkscape:pageshadow="2"
     inkscape:zoom="4.0898467"
     inkscape:cx="357.26199"
     inkscape:cy="712.45279"
     inkscape:document-units="px"
     inkscape:current-layer="layer1"
     showgrid="true"
     inkscape:window-width="1238"
     inkscape:window-height="756"
     inkscape:window-x="1280"
     inkscape:window-y="54"
     inkscape:window-maximized="1">
    <inkscape:grid
       id="grid2985"
       type="xygrid" />
  </sodipodi:namedview>
  <defs
     id="defs4">
    <marker
       inkscape:stockid="Arrow1Mstart"
       orient="auto"
       refY="0.0"
       refX="0.0"
       id="Arrow1Mstart"
       style="overflow:visible">
      <path
         id="path4075"
         d="M 0.0,0.0 L 5.0,-5.0 L -12.5,0.0 L 5.0,5.0 L 0.0,0.0 z "
         style="fill-rule:evenodd;stroke:#000000;stroke-width:1.0pt;marker-start:none"
         transform="scale(0.4) translate(10,0)" />
    </marker>
    <marker
       inkscape:stockid="Arrow1Mend"
       orient="auto"
       refY="0.0"
       refX="0.0"
       id="Arrow1Mend"
       style="overflow:visible;">
      <path
         id="path4078"
         d="M 0.0,0.0 L 5.0,-5.0 L -12.5,0.0 L 5.0,5.0 L 0.0,0.0 z "
         style="fill-rule:evenodd;stroke:#000000;stroke-width:1.0pt;marker-start:none;"
         transform="scale(0.4) rotate(180) translate(10,0)" />
    </marker>
    <marker
       style="overflow:visible;"
       id="Arrow1Lend"
       refX="0.0"
       refY="0.0"
       orient="auto"
       inkscape:stockid="Arrow1Lend">
      <path
         transform="scale(0.8) rotate(180) translate(12.5,0)"
         style="fill-rule:evenodd;stroke:#000000;stroke-width:1.0pt;"
         d="M 0.0,0.0 L 5.0,-5.0 L -12.5,0.0 L 5.0,5.0 L 0.0,0.0 z "
         id="path3843" />
    </marker>
    <marker
       style="overflow:visible"
       id="Arrow1Lstart"
       refX="0.0"
       refY="0.0"
       orient="auto"
       inkscape:stockid="Arrow1Lstart">
      <path
         transform="scale(0.8) translate(12.5,0)"
         style="fill-rule:evenodd;stroke:#000000;stroke-width:1.0pt"
         d="M 0.0,0.0 L 5.0,-5.0 L -12.5,0.0 L 5.0,5.0 L 0.0,0.0 z "
         id="path3840" />
    </marker>
    <marker
       style="overflow:visible;"
       id="Arrow1Lendl"
       refX="0.0"
       refY="0.0"
       orient="auto"
       inkscape:stockid="Arrow1Lendl">
      <path
         transform="scale(0.8) rotate(180) translate(12.5,0)"
         style="stroke:#ff0000;stroke-width:1.0pt;fill:#ff0000;fill-rule:evenodd"
         d="M 0.0,0.0 L 5.0,-5.0 L -12.5,0.0 L 5.0,5.0 L 0.0,0.0 z "
         id="path6810" />
    </marker>
    <marker
       style="overflow:visible;"
       id="Arrow1LendC"
       refX="0.0"
       refY="0.0"
       orient="auto"
       inkscape:stockid="Arrow1LendC">
      <path
         transform="scale(0.8) rotate(180) translate(12.5,0)"
         style="stroke:#0000ff;stroke-width:1.0pt;fill:#0000ff;fill-rule:evenodd"
         d="M 0.0,0.0 L 5.0,-5.0 L -12.5,0.0 L 5.0,5.0 L 0.0,0.0 z "
         id="path6903" />
    </marker>
    <marker
       style="overflow:visible;"
       id="Arrow1LendR"
       refX="0.0"
       refY="0.0"
       orient="auto"
       inkscape:stockid="Arrow1LendR">
      <path
         transform="scale(0.8) rotate(180) translate(12.5,0)"
         style="stroke:#0000ff;stroke-width:1.0pt;fill:#0000ff;fill-rule:evenodd"
         d="M 0.0,0.0 L 5.0,-5.0 L -12.5,0.0 L 5.0,5.0 L 0.0,0.0 z "
         id="path6906" />
    </marker>
  </defs>
  <metadata
     id="metadata7">
    <rdf:RDF>
      <cc:Work
         rdf:about="">
        <dc:format>image/svg+xml</dc:format>
        <dc:type
           rdf:resource="http://purl.org/dc/dcmitype/StillImage" />
        <dc:title></dc:title>
      </cc:Work>
    </rdf:RDF>
  </metadata>
  <g
     id="layer1"
     inkscape:groupmode="layer"
     inkscape:label="Layer 1">
    <g
       id="g3155"
       transform="matrix(0.5625,0,0,0.5625,133.4375,167.50221)">
      <path
         transform="translate(30,-10.5)"
         sodipodi:type="arc"
         style="fill:none;stroke:#000000;stroke-opacity:1"
         id="path3779"
         sodipodi:cx="275"
         sodipodi:cy="284.86218"
         sodipodi:rx="20"
         sodipodi:ry="7.5"
         d="m 295,284.86218 c 0,4.14214 -8.95431,7.5 -20,7.5 -11.04569,0 -20,-3.35786 -20,-7.5 0,-4.14213 8.95431,-7.5 20,-7.5 11.04569,0 20,3.35787 20,7.5 z" />
      <path
         d="m 295,284.86218 c 0,4.14214 -8.95431,7.5 -20,7.5 -11.04569,0 -20,-3.35786 -20,-7.5 0,-4.14213 8.95431,-7.5 20,-7.5 11.04569,0 20,3.35787 20,7.5 z"
         sodipodi:ry="7.5"
         sodipodi:rx="20"
         sodipodi:cy="284.86218"
         sodipodi:cx="275"
         id="path3781"
         style="fill:none;stroke:#000000;stroke-opacity:1"
         sodipodi:type="arc"
         transform="translate(30,14.5)" />
      <path
         inkscape:connector-curvature="0"
         id="path3783"
         d="m 325,274.36218 0,25"
         style="fill:none;stroke:#000000;stroke-width:1px;stroke-linecap:butt;stroke-linejoin:miter;stroke-opacity:1" />
      <path
         style="fill:none;stroke:#000000;stroke-width:1px;stroke-linecap:butt;stroke-linejoin:miter;stroke-opacity:1"
         d="m 285,274.36218 0,25"
         id="path3785"
         inkscape:connector-curvature="0" />
      <rect
         style="fill:#ffffff;fill-opacity:1;stroke:none"
         id="rect3822"
         width="38.885662"
         height="10"
         x="285.50891"
         y="289.36218" />
    </g>
    <g
       id="Expanded"
       transform="matrix(0.39375,0,0,0.39375,420.4625,263.54968)">
      <g
         id="g5">
        <g
           id="g7">
          <path
             id="path9"
             d="M 44,40 H 4 C 1.794,40 0,38.206 0,36 V 6 C 0,3.794 1.794,2 4,2 h 40 c 2.206,0 4,1.794 4,4 v 30 c 0,2.206 -1.794,4 -4,4 z M 4,4 C 2.897,4 2,4.897 2,6 v 30 c 0,1.103 0.897,2 2,2 h 40 c 1.103,0 2,-0.897 2,-2 V 6 C 46,4.897 45.103,4 44,4 H 4 z"
             inkscape:connector-curvature="0" />
        </g>
        <g
           id="g11">
          <path
             id="path13"
             d="M 38,46 H 10 C 9.448,46 9,45.552 9,45 9,44.448 9.448,44 10,44 h 28 c 0.552,0 1,0.448 1,1 0,0.552 -0.448,1 -1,1 z"
             inkscape:connector-curvature="0" />
        </g>
        <g
           id="g15">
          <path
             id="path17"
             d="M 31.02,46 C 31.013,46 31.007,46 31,46 H 17 c -0.321,0 -0.623,-0.154 -0.811,-0.416 -0.188,-0.261 -0.239,-0.596 -0.138,-0.901 l 2,-6 C 18.188,38.275 18.569,38 19,38 h 10 c 0.431,0 0.812,0.275 0.949,0.684 l 1.94,5.821 c 0.083,0.146 0.131,0.315 0.131,0.495 0,0.552 -0.448,1 -1,1 z M 18.387,44 H 29.613 L 28.28,40 h -8.559 l -1.334,4 z"
             inkscape:connector-curvature="0" />
        </g>
        <g
           id="g19">
          <path
             id="path21"
             d="M 44,32 H 4 V 6 H 44 V 32 z M 6,30 H 42 V 8 H 6 v 22 z"
             inkscape:connector-curvature="0" />
        </g>
        <g
           id="g23">
          <circle
             id="circle25"
             r="2"
             cy="35"
             cx="24"
             sodipodi:cx="24"
             sodipodi:cy="35"
             sodipodi:rx="2"
             sodipodi:ry="2"
             d="m 26,35 c 0,1.104569 -0.895431,2 -2,2 -1.104569,0 -2,-0.895431 -2,-2 0,-1.104569 0.895431,-2 2,-2 1.104569,0 2,0.895431 2,2 z" />
        </g>
      </g>
    </g>
    <g
       id="g4039"
       transform="matrix(0.9,0,0,0.9,74.75,32.486218)">
      <path
         inkscape:connector-curvature="0"
         id="path3162"
         d="m 315,302.36218 0,45"
         style="fill:none;stroke:#000000;stroke-width:0.30000001;stroke-linecap:butt;stroke-linejoin:miter;stroke-miterlimit:4;stroke-opacity:1;stroke-dasharray:none" />
      <path
         inkscape:connector-curvature="0"
         id="path3962"
         d="m 305,312.36218 45,0"
         style="fill:none;stroke:#000000;stroke-width:0.30000001;stroke-linecap:butt;stroke-linejoin:miter;stroke-miterlimit:4;stroke-opacity:1;stroke-dasharray:none" />
      <text
         sodipodi:linespacing="125%"
         id="text3964"
         y="309.27621"
         x="320.9949"
         style="font-size:5.85640049px;font-style:normal;font-weight:normal;line-height:125%;letter-spacing:0px;word-spacing:0px;fill:#000000;fill-opacity:1;stroke:none;font-family:Sans"
         xml:space="preserve"><tspan
           y="309.27621"
           x="320.9949"
           id="tspan3966"
           sodipodi:role="line">features</tspan></text>
      <text
         xml:space="preserve"
         style="font-size:5.85640049px;font-style:normal;font-weight:normal;line-height:125%;letter-spacing:0px;word-spacing:0px;fill:#000000;fill-opacity:1;stroke:none;font-family:Sans"
         x="306.9949"
         y="319.27621"
         id="text3968"
         sodipodi:linespacing="125%"><tspan
           sodipodi:role="line"
           id="tspan3970"
           x="306.9949"
           y="319.27621">x</tspan><tspan
           id="tspan3972"
           sodipodi:role="line"
           x="306.9949"
           y="326.59671">x</tspan><tspan
           id="tspan3974"
           sodipodi:role="line"
           x="306.9949"
           y="333.91721" /><tspan
           id="tspan3978"
           sodipodi:role="line"
           x="306.9949"
           y="341.2377">x</tspan></text>
      <text
         sodipodi:linespacing="125%"
         id="text3996"
         y="320.36218"
         x="310"
         style="font-size:4.09948015px;font-style:normal;font-weight:normal;line-height:125%;letter-spacing:0px;word-spacing:0px;fill:#000000;fill-opacity:1;stroke:none;font-family:Sans"
         xml:space="preserve"><tspan
           y="320.36218"
           x="310"
           sodipodi:role="line"
           id="tspan4004">1</tspan></text>
      <text
         xml:space="preserve"
         style="font-size:4.09948015px;font-style:normal;font-weight:normal;line-height:125%;letter-spacing:0px;word-spacing:0px;fill:#000000;fill-opacity:1;stroke:none;font-family:Sans"
         x="310"
         y="327.36218"
         id="text4015"
         sodipodi:linespacing="125%"><tspan
           id="tspan4017"
           sodipodi:role="line"
           x="310"
           y="327.36218">2</tspan></text>
      <text
         sodipodi:linespacing="125%"
         id="text4019"
         y="342.36218"
         x="310"
         style="font-size:4.09948015px;font-style:normal;font-weight:normal;line-height:125%;letter-spacing:0px;word-spacing:0px;fill:#000000;fill-opacity:1;stroke:none;font-family:Sans"
         xml:space="preserve"><tspan
           y="342.36218"
           x="310"
           sodipodi:role="line"
           id="tspan4021">N</tspan></text>
      <text
         xml:space="preserve"
         style="font-size:5.85640049px;font-style:normal;font-weight:normal;line-height:125%;letter-spacing:0px;word-spacing:0px;fill:#000000;fill-opacity:1;stroke:none;font-family:Sans"
         x="328.9949"
         y="317.27621"
         id="text4023"
         sodipodi:linespacing="125%"><tspan
           sodipodi:role="line"
           id="tspan4025"
           x="328.9949"
           y="317.27621">...</tspan></text>
      <text
         sodipodi:linespacing="125%"
         id="text4027"
         y="325.27621"
         x="328.9949"
         style="font-size:5.85640049px;font-style:normal;font-weight:normal;line-height:125%;letter-spacing:0px;word-spacing:0px;fill:#000000;fill-opacity:1;stroke:none;font-family:Sans"
         xml:space="preserve"><tspan
           y="325.27621"
           x="328.9949"
           id="tspan4029"
           sodipodi:role="line">...</tspan></text>
      <text
         xml:space="preserve"
         style="font-size:5.85640049px;font-style:normal;font-weight:normal;line-height:125%;letter-spacing:0px;word-spacing:0px;fill:#000000;fill-opacity:1;stroke:none;font-family:Sans"
         x="328.9949"
         y="341.27621"
         id="text4031"
         sodipodi:linespacing="125%"><tspan
           sodipodi:role="line"
           id="tspan4033"
           x="328.9949"
           y="341.27621">...</tspan></text>
      <text
         transform="matrix(0,-1,1,0,0,0)"
         sodipodi:linespacing="125%"
         id="text4035"
         y="332.15045"
         x="-335.70541"
         style="font-size:5.85640049px;font-style:normal;font-weight:normal;line-height:125%;letter-spacing:0px;word-spacing:0px;fill:#000000;fill-opacity:1;stroke:none;font-family:Sans"
         xml:space="preserve"><tspan
           y="332.15045"
           x="-335.70541"
           id="tspan4037"
           sodipodi:role="line">...</tspan></text>
    </g>
    <path
       sodipodi:type="arc"
       style="fill:#ff0000;fill-opacity:1;stroke:#ff0000;stroke-width:0.5;stroke-miterlimit:4;stroke-opacity:1;stroke-dasharray:none;stroke-dashoffset:0"
       id="path4520"
       sodipodi:cx="417.5"
       sodipodi:cy="304.86218"
       sodipodi:rx="2.5"
       sodipodi:ry="2.5"
       d="m 420,304.86218 a 2.5,2.5 0 1 1 -5,0 2.5,2.5 0 1 1 5,0 z"
       transform="matrix(0.49,0,0,0.49,224.925,167.47971)" />
    <path
       transform="matrix(0.49,0,0,0.49,218.925,173.47971)"
       d="m 420,304.86218 a 2.5,2.5 0 1 1 -5,0 2.5,2.5 0 1 1 5,0 z"
       sodipodi:ry="2.5"
       sodipodi:rx="2.5"
       sodipodi:cy="304.86218"
       sodipodi:cx="417.5"
       id="path4528"
       style="fill:#ff0000;fill-opacity:1;stroke:#ff0000;stroke-width:0.5;stroke-miterlimit:4;stroke-opacity:1;stroke-dasharray:none;stroke-dashoffset:0"
       sodipodi:type="arc" />
    <path
       sodipodi:type="arc"
       style="fill:#ff0000;fill-opacity:1;stroke:#ff0000;stroke-width:0.5;stroke-miterlimit:4;stroke-opacity:1;stroke-dasharray:none;stroke-dashoffset:0"
       id="path4530"
       sodipodi:cx="417.5"
       sodipodi:cy="304.86218"
       sodipodi:rx="2.5"
       sodipodi:ry="2.5"
       d="m 420,304.86218 a 2.5,2.5 0 1 1 -5,0 2.5,2.5 0 1 1 5,0 z"
       transform="matrix(0.49,0,0,0.49,210.925,171.47971)" />
    <path
       transform="matrix(0.49,0,0,0.49,224.925,159.47971)"
       d="m 420,304.86218 a 2.5,2.5 0 1 1 -5,0 2.5,2.5 0 1 1 5,0 z"
       sodipodi:ry="2.5"
       sodipodi:rx="2.5"
       sodipodi:cy="304.86218"
       sodipodi:cx="417.5"
       id="path4532"
       style="fill:#ff0000;fill-opacity:1;stroke:#ff0000;stroke-width:0.5;stroke-miterlimit:4;stroke-opacity:1;stroke-dasharray:none;stroke-dashoffset:0"
       sodipodi:type="arc" />
    <path
       sodipodi:type="arc"
       style="fill:#ff0000;fill-opacity:1;stroke:#ff0000;stroke-width:0.5;stroke-miterlimit:4;stroke-opacity:1;stroke-dasharray:none;stroke-dashoffset:0"
       id="path4534"
       sodipodi:cx="417.5"
       sodipodi:cy="304.86218"
       sodipodi:rx="2.5"
       sodipodi:ry="2.5"
       d="m 420,304.86218 a 2.5,2.5 0 1 1 -5,0 2.5,2.5 0 1 1 5,0 z"
       transform="matrix(0.49,0,0,0.49,218.925,167.47971)" />
    <path
       transform="matrix(0.49,0,0,0.49,214.925,179.47971)"
       d="m 420,304.86218 a 2.5,2.5 0 1 1 -5,0 2.5,2.5 0 1 1 5,0 z"
       sodipodi:ry="2.5"
       sodipodi:rx="2.5"
       sodipodi:cy="304.86218"
       sodipodi:cx="417.5"
       id="path4536"
       style="fill:#ff0000;fill-opacity:1;stroke:#ff0000;stroke-width:0.5;stroke-miterlimit:4;stroke-opacity:1;stroke-dasharray:none;stroke-dashoffset:0"
       sodipodi:type="arc" />
    <g
       id="g4544"
       transform="matrix(0.49,0,0,0.49,224.925,175.12971)">
      <path
         inkscape:connector-curvature="0"
         id="path4540"
         d="m 415,317.36218 5,5"
         style="fill:none;stroke:#0000ff;stroke-width:1px;stroke-linecap:butt;stroke-linejoin:miter;stroke-opacity:1" />
      <path
         inkscape:connector-curvature="0"
         id="path4542"
         d="m 420,317.36218 -5,5"
         style="fill:none;stroke:#0000ff;stroke-width:1px;stroke-linecap:butt;stroke-linejoin:miter;stroke-opacity:1" />
    </g>
    <g
       transform="matrix(0.49,0,0,0.49,224.925,175.12971)"
       id="g4548">
      <path
         style="fill:none;stroke:#0000ff;stroke-width:1px;stroke-linecap:butt;stroke-linejoin:miter;stroke-opacity:1"
         d="m 415,317.36218 5,5"
         id="path4550"
         inkscape:connector-curvature="0" />
      <path
         style="fill:none;stroke:#0000ff;stroke-width:1px;stroke-linecap:butt;stroke-linejoin:miter;stroke-opacity:1"
         d="m 420,317.36218 -5,5"
         id="path4552"
         inkscape:connector-curvature="0" />
    </g>
    <g
       id="g4554"
       transform="matrix(0.49,0,0,0.49,226.925,169.12971)">
      <path
         inkscape:connector-curvature="0"
         id="path4556"
         d="m 415,317.36218 5,5"
         style="fill:none;stroke:#0000ff;stroke-width:1px;stroke-linecap:butt;stroke-linejoin:miter;stroke-opacity:1" />
      <path
         inkscape:connector-curvature="0"
         id="path4558"
         d="m 420,317.36218 -5,5"
         style="fill:none;stroke:#0000ff;stroke-width:1px;stroke-linecap:butt;stroke-linejoin:miter;stroke-opacity:1" />
    </g>
    <g
       transform="matrix(0.49,0,0,0.49,230.925,169.12971)"
       id="g4560">
      <path
         style="fill:none;stroke:#0000ff;stroke-width:1px;stroke-linecap:butt;stroke-linejoin:miter;stroke-opacity:1"
         d="m 415,317.36218 5,5"
         id="path4562"
         inkscape:connector-curvature="0" />
      <path
         style="fill:none;stroke:#0000ff;stroke-width:1px;stroke-linecap:butt;stroke-linejoin:miter;stroke-opacity:1"
         d="m 420,317.36218 -5,5"
         id="path4564"
         inkscape:connector-curvature="0" />
    </g>
    <g
       id="g4566"
       transform="matrix(0.49,0,0,0.49,234.925,165.12971)">
      <path
         inkscape:connector-curvature="0"
         id="path4568"
         d="m 415,317.36218 5,5"
         style="fill:none;stroke:#0000ff;stroke-width:1px;stroke-linecap:butt;stroke-linejoin:miter;stroke-opacity:1" />
      <path
         inkscape:connector-curvature="0"
         id="path4570"
         d="m 420,317.36218 -5,5"
         style="fill:none;stroke:#0000ff;stroke-width:1px;stroke-linecap:butt;stroke-linejoin:miter;stroke-opacity:1" />
    </g>
    <g
       transform="matrix(0.49,0,0,0.49,232.925,175.12971)"
       id="g4572">
      <path
         style="fill:none;stroke:#0000ff;stroke-width:1px;stroke-linecap:butt;stroke-linejoin:miter;stroke-opacity:1"
         d="m 415,317.36218 5,5"
         id="path4574"
         inkscape:connector-curvature="0" />
      <path
         style="fill:none;stroke:#0000ff;stroke-width:1px;stroke-linecap:butt;stroke-linejoin:miter;stroke-opacity:1"
         d="m 420,317.36218 -5,5"
         id="path4576"
         inkscape:connector-curvature="0" />
    </g>
    <g
       id="g4578"
       transform="matrix(0.49,0,0,0.49,232.925,175.12971)">
      <path
         inkscape:connector-curvature="0"
         id="path4580"
         d="m 415,317.36218 5,5"
         style="fill:none;stroke:#0000ff;stroke-width:1px;stroke-linecap:butt;stroke-linejoin:miter;stroke-opacity:1" />
      <path
         inkscape:connector-curvature="0"
         id="path4582"
         d="m 420,317.36218 -5,5"
         style="fill:none;stroke:#0000ff;stroke-width:1px;stroke-linecap:butt;stroke-linejoin:miter;stroke-opacity:1" />
    </g>
    <path
       style="fill:none;stroke:#000000;stroke-width:0.5;stroke-linecap:butt;stroke-linejoin:miter;stroke-miterlimit:4;stroke-opacity:1;stroke-dasharray:1, 0.5;stroke-dashoffset:0"
       d="m 417,339.36218 25,-30"
       id="path4584"
       inkscape:connector-curvature="0" />
    <path
       style="fill:none;stroke:#0000ff;stroke-width:0.50000000000000000;stroke-linecap:butt;stroke-linejoin:miter;stroke-miterlimit:10.39999961999999911;stroke-opacity:1;stroke-dasharray:none;marker-end:url(#Arrow1Mend)"
       d="m 432,282.36218 c 0,0 10,5.28595 10,10 0,4.71405 -10,10 -10,10"
       id="path4618"
       inkscape:connector-curvature="0"
       sodipodi:nodetypes="cac" />
    <path
       sodipodi:nodetypes="cac"
       inkscape:connector-curvature="0"
       id="path4812"
       d="m 427.68296,302.47084 c 0,0 -10,-5.28595 -10,-10 0,-4.71405 10,-10 10,-10"
       style="fill:none;stroke:#0000ff;stroke-width:0.50000000000000000;stroke-linecap:butt;stroke-linejoin:miter;stroke-miterlimit:10.39999961999999911;stroke-opacity:1;stroke-dasharray:none;marker-end:url(#Arrow1Mend)" />
    <path
       style="fill:none;stroke:#000000;stroke-width:1px;stroke-linecap:butt;stroke-linejoin:miter;stroke-opacity:1;marker-end:url(#Arrow1Mend)"
       d="m 320,327.36218 25,0"
       id="path4818"
       inkscape:connector-curvature="0" />
    <path
       style="fill:none;stroke:#ff0000;stroke-width:1px;stroke-linecap:butt;stroke-linejoin:miter;stroke-opacity:1;marker-end:url(#Arrow1Mend)"
       d="m 390,327.36218 20,0"
       id="path5012"
       inkscape:connector-curvature="0" />
    <text
       xml:space="preserve"
       style="font-size:6.86000013px;font-style:normal;font-weight:normal;line-height:125%;letter-spacing:0px;word-spacing:0px;fill:#000000;fill-opacity:1;stroke:none;font-family:Sans"
       x="324.88379"
       y="323.5596"
       id="text9691"
       sodipodi:linespacing="125%"><tspan
         sodipodi:role="line"
         id="tspan9693"
         x="324.88379"
         y="323.5596">(1)</tspan></text>
    <text
       sodipodi:linespacing="125%"
       id="text9695"
       y="323.5596"
       x="392.88379"
       style="font-size:6.86000013000000042px;font-style:normal;font-weight:normal;line-height:125%;letter-spacing:0px;word-spacing:0px;fill:#ff0000;fill-opacity:1;stroke:none;font-family:Sans"
       xml:space="preserve"><tspan
         y="323.5596"
         x="392.88379"
         id="tspan9697"
         sodipodi:role="line">(2)</tspan></text>
    <text
       xml:space="preserve"
       style="font-size:6.86000013000000042px;font-style:normal;font-weight:normal;line-height:125%;letter-spacing:0px;word-spacing:0px;fill:#0000ff;fill-opacity:1;stroke:none;font-family:Sans"
       x="424.88379"
       y="293.5596"
       id="text9699"
       sodipodi:linespacing="125%"><tspan
         sodipodi:role="line"
         id="tspan9701"
         x="424.88379"
         y="293.5596">(3)</tspan></text>
  </g>
</svg>
