<?xml version="1.0" encoding="UTF-8" standalone="no"?>
<!-- Created with Inkscape (http://www.inkscape.org/) -->

<svg
   xmlns:dc="http://purl.org/dc/elements/1.1/"
   xmlns:cc="http://creativecommons.org/ns#"
   xmlns:rdf="http://www.w3.org/1999/02/22-rdf-syntax-ns#"
   xmlns:svg="http://www.w3.org/2000/svg"
   xmlns="http://www.w3.org/2000/svg"
   xmlns:sodipodi="http://sodipodi.sourceforge.net/DTD/sodipodi-0.dtd"
   xmlns:inkscape="http://www.inkscape.org/namespaces/inkscape"
   width="744.09448819"
   height="1052.3622047"
   id="svg2"
   version="1.1"
   inkscape:version="0.48.3.1 r9886"
   sodipodi:docname="pipeline2.svg">
  <sodipodi:namedview
     id="base"
     pagecolor="#ffffff"
     bordercolor="#666666"
     borderopacity="1.0"
     inkscape:pageopacity="0.0"
     inkscape:pageshadow="2"
     inkscape:zoom="4"
     inkscape:cx="358.62626"
     inkscape:cy="700.40811"
     inkscape:document-units="px"
     inkscape:current-layer="layer1"
     showgrid="true"
     inkscape:window-width="1268"
     inkscape:window-height="947"
     inkscape:window-x="1600"
     inkscape:window-y="24"
     inkscape:window-maximized="1">
    <inkscape:grid
       type="xygrid"
       id="grid2985" />
  </sodipodi:namedview>
  <defs
     id="defs4">
    <marker
       style="overflow:visible;"
       id="Arrow1Mend"
       refX="0.0"
       refY="0.0"
       orient="auto"
       inkscape:stockid="Arrow1Mend">
      <path
         transform="scale(0.4) rotate(180) translate(10,0)"
         style="fill-rule:evenodd;stroke:#000000;stroke-width:1.0pt;marker-start:none;"
         d="M 0.0,0.0 L 5.0,-5.0 L -12.5,0.0 L 5.0,5.0 L 0.0,0.0 z "
         id="path4078" />
    </marker>
    <marker
       inkscape:stockid="Arrow1Lend"
       orient="auto"
       refY="0.0"
       refX="0.0"
       id="Arrow1Lend"
       style="overflow:visible;">
      <path
         id="path3843"
         d="M 0.0,0.0 L 5.0,-5.0 L -12.5,0.0 L 5.0,5.0 L 0.0,0.0 z "
         style="fill-rule:evenodd;stroke:#000000;stroke-width:1.0pt;"
         transform="scale(0.8) rotate(180) translate(12.5,0)" />
    </marker>
    <marker
       inkscape:stockid="Arrow1Lstart"
       orient="auto"
       refY="0.0"
       refX="0.0"
       id="Arrow1Lstart"
       style="overflow:visible">
      <path
         id="path3840"
         d="M 0.0,0.0 L 5.0,-5.0 L -12.5,0.0 L 5.0,5.0 L 0.0,0.0 z "
         style="fill-rule:evenodd;stroke:#000000;stroke-width:1.0pt"
         transform="scale(0.8) translate(12.5,0)" />
    </marker>
    <marker
       inkscape:stockid="Arrow1Lendl"
       orient="auto"
       refY="0.0"
       refX="0.0"
       id="Arrow1Lendl"
       style="overflow:visible;">
      <path
         id="path6810"
         d="M 0.0,0.0 L 5.0,-5.0 L -12.5,0.0 L 5.0,5.0 L 0.0,0.0 z "
         style="stroke:#ff0000;stroke-width:1.0pt;fill:#ff0000;fill-rule:evenodd"
         transform="scale(0.8) rotate(180) translate(12.5,0)" />
    </marker>
    <marker
       inkscape:stockid="Arrow1LendC"
       orient="auto"
       refY="0.0"
       refX="0.0"
       id="Arrow1LendC"
       style="overflow:visible;">
      <path
         id="path6903"
         d="M 0.0,0.0 L 5.0,-5.0 L -12.5,0.0 L 5.0,5.0 L 0.0,0.0 z "
         style="stroke:#0000ff;stroke-width:1.0pt;fill:#0000ff;fill-rule:evenodd"
         transform="scale(0.8) rotate(180) translate(12.5,0)" />
    </marker>
    <marker
       inkscape:stockid="Arrow1LendR"
       orient="auto"
       refY="0.0"
       refX="0.0"
       id="Arrow1LendR"
       style="overflow:visible;">
      <path
         id="path6906"
         d="M 0.0,0.0 L 5.0,-5.0 L -12.5,0.0 L 5.0,5.0 L 0.0,0.0 z "
         style="stroke:#0000ff;stroke-width:1.0pt;fill:#0000ff;fill-rule:evenodd"
         transform="scale(0.8) rotate(180) translate(12.5,0)" />
    </marker>
    <marker
       style="overflow:visible;"
       id="Arrow1Mendj"
       refX="0.0"
       refY="0.0"
       orient="auto"
       inkscape:stockid="Arrow1Mendj">
      <path
         transform="scale(0.4) rotate(180) translate(10,0)"
         style="marker-start:none;stroke:#ff0000;stroke-width:1.0pt;fill:#ff0000;fill-rule:evenodd"
         d="M 0.0,0.0 L 5.0,-5.0 L -12.5,0.0 L 5.0,5.0 L 0.0,0.0 z "
         id="path12888" />
    </marker>
    <marker
       style="overflow:visible;"
       id="Arrow1Mend7"
       refX="0.0"
       refY="0.0"
       orient="auto"
       inkscape:stockid="Arrow1Mend7">
      <path
         transform="scale(0.4) rotate(180) translate(10,0)"
         style="marker-start:none;stroke:#ff0000;stroke-width:1.0pt;fill:#ff0000;fill-rule:evenodd"
         d="M 0.0,0.0 L 5.0,-5.0 L -12.5,0.0 L 5.0,5.0 L 0.0,0.0 z "
         id="path12891" />
    </marker>
    <marker
       style="overflow:visible;"
       id="Arrow1Mend1"
       refX="0.0"
       refY="0.0"
       orient="auto"
       inkscape:stockid="Arrow1Mend1">
      <path
         transform="scale(0.4) rotate(180) translate(10,0)"
         style="marker-start:none;stroke:#ff0000;stroke-width:1.0pt;fill:#ff0000;fill-rule:evenodd"
         d="M 0.0,0.0 L 5.0,-5.0 L -12.5,0.0 L 5.0,5.0 L 0.0,0.0 z "
         id="path12894" />
    </marker>
    <marker
       style="overflow:visible;"
       id="Arrow1Mendt"
       refX="0.0"
       refY="0.0"
       orient="auto"
       inkscape:stockid="Arrow1Mendt">
      <path
         transform="scale(0.4) rotate(180) translate(10,0)"
         style="marker-start:none;stroke:#ff0000;stroke-width:1.0pt;fill:#ff0000;fill-rule:evenodd"
         d="M 0.0,0.0 L 5.0,-5.0 L -12.5,0.0 L 5.0,5.0 L 0.0,0.0 z "
         id="path12897" />
    </marker>
    <marker
       style="overflow:visible;"
       id="Arrow1MendQ"
       refX="0.0"
       refY="0.0"
       orient="auto"
       inkscape:stockid="Arrow1MendQ">
      <path
         transform="scale(0.4) rotate(180) translate(10,0)"
         style="marker-start:none;stroke:#0000ff;stroke-width:1.0pt;fill:#0000ff;fill-rule:evenodd"
         d="M 0.0,0.0 L 5.0,-5.0 L -12.5,0.0 L 5.0,5.0 L 0.0,0.0 z "
         id="path12900" />
    </marker>
    <marker
       style="overflow:visible;"
       id="Arrow1Mendb"
       refX="0.0"
       refY="0.0"
       orient="auto"
       inkscape:stockid="Arrow1Mendb">
      <path
         transform="scale(0.4) rotate(180) translate(10,0)"
         style="marker-start:none;stroke:#0000ff;stroke-width:1.0pt;fill:#0000ff;fill-rule:evenodd"
         d="M 0.0,0.0 L 5.0,-5.0 L -12.5,0.0 L 5.0,5.0 L 0.0,0.0 z "
         id="path12903" />
    </marker>
  </defs>
  <metadata
     id="metadata7">
    <rdf:RDF>
      <cc:Work
         rdf:about="">
        <dc:format>image/svg+xml</dc:format>
        <dc:type
           rdf:resource="http://purl.org/dc/dcmitype/StillImage" />
        <dc:title />
      </cc:Work>
    </rdf:RDF>
  </metadata>
  <g
     inkscape:label="Layer 1"
     inkscape:groupmode="layer"
     id="layer1">
    <g
       transform="matrix(0.5625,0,0,0.5625,133.4375,167.50221)"
       id="g3155">
      <path
         d="m 295,284.86218 c 0,4.14214 -8.95431,7.5 -20,7.5 -11.04569,0 -20,-3.35786 -20,-7.5 0,-4.14213 8.95431,-7.5 20,-7.5 11.04569,0 20,3.35787 20,7.5 z"
         sodipodi:ry="7.5"
         sodipodi:rx="20"
         sodipodi:cy="284.86218"
         sodipodi:cx="275"
         id="path3779"
         style="fill:none;stroke:#000000;stroke-opacity:1"
         sodipodi:type="arc"
         transform="translate(30,-10.5)" />
      <path
         transform="translate(30,14.5)"
         sodipodi:type="arc"
         style="fill:none;stroke:#000000;stroke-opacity:1"
         id="path3781"
         sodipodi:cx="275"
         sodipodi:cy="284.86218"
         sodipodi:rx="20"
         sodipodi:ry="7.5"
         d="m 295,284.86218 c 0,4.14214 -8.95431,7.5 -20,7.5 -11.04569,0 -20,-3.35786 -20,-7.5 0,-4.14213 8.95431,-7.5 20,-7.5 11.04569,0 20,3.35787 20,7.5 z" />
      <path
         style="fill:none;stroke:#000000;stroke-width:1px;stroke-linecap:butt;stroke-linejoin:miter;stroke-opacity:1"
         d="m 325,274.36218 0,25"
         id="path3783"
         inkscape:connector-curvature="0" />
      <path
         inkscape:connector-curvature="0"
         id="path3785"
         d="m 285,274.36218 0,25"
         style="fill:none;stroke:#000000;stroke-width:1px;stroke-linecap:butt;stroke-linejoin:miter;stroke-opacity:1" />
      <rect
         y="289.36218"
         x="285.50891"
         height="10"
         width="38.885662"
         id="rect3822"
         style="fill:#ffffff;fill-opacity:1;stroke:none" />
    </g>
    <g
       transform="matrix(0.39375,0,0,0.39375,420.4625,263.54968)"
       id="Expanded">
      <g
         id="g5">
        <g
           id="g7">
          <path
             inkscape:connector-curvature="0"
             d="M 44,40 H 4 C 1.794,40 0,38.206 0,36 V 6 C 0,3.794 1.794,2 4,2 h 40 c 2.206,0 4,1.794 4,4 v 30 c 0,2.206 -1.794,4 -4,4 z M 4,4 C 2.897,4 2,4.897 2,6 v 30 c 0,1.103 0.897,2 2,2 h 40 c 1.103,0 2,-0.897 2,-2 V 6 C 46,4.897 45.103,4 44,4 H 4 z"
             id="path9" />
        </g>
        <g
           id="g11">
          <path
             inkscape:connector-curvature="0"
             d="M 38,46 H 10 C 9.448,46 9,45.552 9,45 9,44.448 9.448,44 10,44 h 28 c 0.552,0 1,0.448 1,1 0,0.552 -0.448,1 -1,1 z"
             id="path13" />
        </g>
        <g
           id="g15">
          <path
             inkscape:connector-curvature="0"
             d="M 31.02,46 C 31.013,46 31.007,46 31,46 H 17 c -0.321,0 -0.623,-0.154 -0.811,-0.416 -0.188,-0.261 -0.239,-0.596 -0.138,-0.901 l 2,-6 C 18.188,38.275 18.569,38 19,38 h 10 c 0.431,0 0.812,0.275 0.949,0.684 l 1.94,5.821 c 0.083,0.146 0.131,0.315 0.131,0.495 0,0.552 -0.448,1 -1,1 z M 18.387,44 H 29.613 L 28.28,40 h -8.559 l -1.334,4 z"
             id="path17" />
        </g>
        <g
           id="g19">
          <path
             inkscape:connector-curvature="0"
             d="M 44,32 H 4 V 6 H 44 V 32 z M 6,30 H 42 V 8 H 6 v 22 z"
             id="path21" />
        </g>
        <g
           id="g23">
          <circle
             d="m 26,35 c 0,1.104569 -0.895431,2 -2,2 -1.104569,0 -2,-0.895431 -2,-2 0,-1.104569 0.895431,-2 2,-2 1.104569,0 2,0.895431 2,2 z"
             sodipodi:ry="2"
             sodipodi:rx="2"
             sodipodi:cy="35"
             sodipodi:cx="24"
             cx="24"
             cy="35"
             r="2"
             id="circle25" />
        </g>
      </g>
    </g>
    <g
       transform="matrix(0.9,0,0,0.9,74.75,32.486218)"
       id="g4039">
      <path
         style="fill:none;stroke:#000000;stroke-width:0.30000001;stroke-linecap:butt;stroke-linejoin:miter;stroke-miterlimit:4;stroke-opacity:1;stroke-dasharray:none"
         d="m 315,302.36218 0,45"
         id="path3162"
         inkscape:connector-curvature="0" />
      <path
         style="fill:none;stroke:#000000;stroke-width:0.30000001;stroke-linecap:butt;stroke-linejoin:miter;stroke-miterlimit:4;stroke-opacity:1;stroke-dasharray:none"
         d="m 305,312.36218 45,0"
         id="path3962"
         inkscape:connector-curvature="0" />
      <text
         xml:space="preserve"
         style="font-size:5.85640049px;font-style:normal;font-weight:normal;line-height:125%;letter-spacing:0px;word-spacing:0px;fill:#000000;fill-opacity:1;stroke:none;font-family:Sans"
         x="320.9949"
         y="309.27621"
         id="text3964"
         sodipodi:linespacing="125%"><tspan
           sodipodi:role="line"
           id="tspan3966"
           x="320.9949"
           y="309.27621">features</tspan></text>
      <text
         sodipodi:linespacing="125%"
         id="text3968"
         y="319.27621"
         x="306.9949"
         style="font-size:5.85640049px;font-style:normal;font-weight:normal;line-height:125%;letter-spacing:0px;word-spacing:0px;fill:#000000;fill-opacity:1;stroke:none;font-family:Sans"
         xml:space="preserve"><tspan
           y="319.27621"
           x="306.9949"
           id="tspan3970"
           sodipodi:role="line">x</tspan><tspan
           y="326.59671"
           x="306.9949"
           sodipodi:role="line"
           id="tspan3972">x</tspan><tspan
           y="333.91721"
           x="306.9949"
           sodipodi:role="line"
           id="tspan3974" /><tspan
           y="341.2377"
           x="306.9949"
           sodipodi:role="line"
           id="tspan3978">x</tspan></text>
      <text
         xml:space="preserve"
         style="font-size:4.09948015px;font-style:normal;font-weight:normal;line-height:125%;letter-spacing:0px;word-spacing:0px;fill:#000000;fill-opacity:1;stroke:none;font-family:Sans"
         x="310"
         y="320.36218"
         id="text3996"
         sodipodi:linespacing="125%"><tspan
           id="tspan4004"
           sodipodi:role="line"
           x="310"
           y="320.36218">1</tspan></text>
      <text
         sodipodi:linespacing="125%"
         id="text4015"
         y="327.36218"
         x="310"
         style="font-size:4.09948015px;font-style:normal;font-weight:normal;line-height:125%;letter-spacing:0px;word-spacing:0px;fill:#000000;fill-opacity:1;stroke:none;font-family:Sans"
         xml:space="preserve"><tspan
           y="327.36218"
           x="310"
           sodipodi:role="line"
           id="tspan4017">2</tspan></text>
      <text
         xml:space="preserve"
         style="font-size:4.09948015px;font-style:normal;font-weight:normal;line-height:125%;letter-spacing:0px;word-spacing:0px;fill:#000000;fill-opacity:1;stroke:none;font-family:Sans"
         x="310"
         y="342.36218"
         id="text4019"
         sodipodi:linespacing="125%"><tspan
           id="tspan4021"
           sodipodi:role="line"
           x="310"
           y="342.36218">N</tspan></text>
      <text
         sodipodi:linespacing="125%"
         id="text4023"
         y="317.27621"
         x="328.9949"
         style="font-size:5.85640049px;font-style:normal;font-weight:normal;line-height:125%;letter-spacing:0px;word-spacing:0px;fill:#000000;fill-opacity:1;stroke:none;font-family:Sans"
         xml:space="preserve"><tspan
           y="317.27621"
           x="328.9949"
           id="tspan4025"
           sodipodi:role="line">...</tspan></text>
      <text
         xml:space="preserve"
         style="font-size:5.85640049px;font-style:normal;font-weight:normal;line-height:125%;letter-spacing:0px;word-spacing:0px;fill:#000000;fill-opacity:1;stroke:none;font-family:Sans"
         x="328.9949"
         y="325.27621"
         id="text4027"
         sodipodi:linespacing="125%"><tspan
           sodipodi:role="line"
           id="tspan4029"
           x="328.9949"
           y="325.27621">...</tspan></text>
      <text
         sodipodi:linespacing="125%"
         id="text4031"
         y="341.27621"
         x="328.9949"
         style="font-size:5.85640049px;font-style:normal;font-weight:normal;line-height:125%;letter-spacing:0px;word-spacing:0px;fill:#000000;fill-opacity:1;stroke:none;font-family:Sans"
         xml:space="preserve"><tspan
           y="341.27621"
           x="328.9949"
           id="tspan4033"
           sodipodi:role="line">...</tspan></text>
      <text
         xml:space="preserve"
         style="font-size:5.85640049px;font-style:normal;font-weight:normal;line-height:125%;letter-spacing:0px;word-spacing:0px;fill:#000000;fill-opacity:1;stroke:none;font-family:Sans"
         x="-335.70541"
         y="332.15045"
         id="text4035"
         sodipodi:linespacing="125%"
         transform="matrix(0,-1,1,0,0,0)"><tspan
           sodipodi:role="line"
           id="tspan4037"
           x="-335.70541"
           y="332.15045">...</tspan></text>
    </g>
    <path
       transform="matrix(0.49,0,0,0.49,224.925,167.47971)"
       d="m 420,304.86218 a 2.5,2.5 0 1 1 -5,0 2.5,2.5 0 1 1 5,0 z"
       sodipodi:ry="2.5"
       sodipodi:rx="2.5"
       sodipodi:cy="304.86218"
       sodipodi:cx="417.5"
       id="path4520"
       style="fill:#ff0000;fill-opacity:1;stroke:#ff0000;stroke-width:0.5;stroke-miterlimit:4;stroke-opacity:1;stroke-dasharray:none;stroke-dashoffset:0"
       sodipodi:type="arc" />
    <path
       sodipodi:type="arc"
       style="fill:#ff0000;fill-opacity:1;stroke:#ff0000;stroke-width:0.5;stroke-miterlimit:4;stroke-opacity:1;stroke-dasharray:none;stroke-dashoffset:0"
       id="path4528"
       sodipodi:cx="417.5"
       sodipodi:cy="304.86218"
       sodipodi:rx="2.5"
       sodipodi:ry="2.5"
       d="m 420,304.86218 a 2.5,2.5 0 1 1 -5,0 2.5,2.5 0 1 1 5,0 z"
       transform="matrix(0.49,0,0,0.49,218.925,173.47971)" />
    <path
       transform="matrix(0.49,0,0,0.49,210.925,171.47971)"
       d="m 420,304.86218 a 2.5,2.5 0 1 1 -5,0 2.5,2.5 0 1 1 5,0 z"
       sodipodi:ry="2.5"
       sodipodi:rx="2.5"
       sodipodi:cy="304.86218"
       sodipodi:cx="417.5"
       id="path4530"
       style="fill:#ff0000;fill-opacity:1;stroke:#ff0000;stroke-width:0.5;stroke-miterlimit:4;stroke-opacity:1;stroke-dasharray:none;stroke-dashoffset:0"
       sodipodi:type="arc" />
    <path
       sodipodi:type="arc"
       style="fill:#ff0000;fill-opacity:1;stroke:#ff0000;stroke-width:0.5;stroke-miterlimit:4;stroke-opacity:1;stroke-dasharray:none;stroke-dashoffset:0"
       id="path4532"
       sodipodi:cx="417.5"
       sodipodi:cy="304.86218"
       sodipodi:rx="2.5"
       sodipodi:ry="2.5"
       d="m 420,304.86218 a 2.5,2.5 0 1 1 -5,0 2.5,2.5 0 1 1 5,0 z"
       transform="matrix(0.49,0,0,0.49,224.925,159.47971)" />
    <path
       transform="matrix(0.49,0,0,0.49,218.925,167.47971)"
       d="m 420,304.86218 a 2.5,2.5 0 1 1 -5,0 2.5,2.5 0 1 1 5,0 z"
       sodipodi:ry="2.5"
       sodipodi:rx="2.5"
       sodipodi:cy="304.86218"
       sodipodi:cx="417.5"
       id="path4534"
       style="fill:#ff0000;fill-opacity:1;stroke:#ff0000;stroke-width:0.5;stroke-miterlimit:4;stroke-opacity:1;stroke-dasharray:none;stroke-dashoffset:0"
       sodipodi:type="arc" />
    <path
       sodipodi:type="arc"
       style="fill:#ff0000;fill-opacity:1;stroke:#ff0000;stroke-width:0.5;stroke-miterlimit:4;stroke-opacity:1;stroke-dasharray:none;stroke-dashoffset:0"
       id="path4536"
       sodipodi:cx="417.5"
       sodipodi:cy="304.86218"
       sodipodi:rx="2.5"
       sodipodi:ry="2.5"
       d="m 420,304.86218 a 2.5,2.5 0 1 1 -5,0 2.5,2.5 0 1 1 5,0 z"
       transform="matrix(0.49,0,0,0.49,214.925,179.47971)" />
    <g
       transform="matrix(0.49,0,0,0.49,224.925,175.12971)"
       id="g4544">
      <path
         style="fill:none;stroke:#0000ff;stroke-width:1px;stroke-linecap:butt;stroke-linejoin:miter;stroke-opacity:1"
         d="m 415,317.36218 5,5"
         id="path4540"
         inkscape:connector-curvature="0" />
      <path
         style="fill:none;stroke:#0000ff;stroke-width:1px;stroke-linecap:butt;stroke-linejoin:miter;stroke-opacity:1"
         d="m 420,317.36218 -5,5"
         id="path4542"
         inkscape:connector-curvature="0" />
    </g>
    <g
       id="g4548"
       transform="matrix(0.49,0,0,0.49,224.925,175.12971)">
      <path
         inkscape:connector-curvature="0"
         id="path4550"
         d="m 415,317.36218 5,5"
         style="fill:none;stroke:#0000ff;stroke-width:1px;stroke-linecap:butt;stroke-linejoin:miter;stroke-opacity:1" />
      <path
         inkscape:connector-curvature="0"
         id="path4552"
         d="m 420,317.36218 -5,5"
         style="fill:none;stroke:#0000ff;stroke-width:1px;stroke-linecap:butt;stroke-linejoin:miter;stroke-opacity:1" />
    </g>
    <g
       transform="matrix(0.49,0,0,0.49,226.925,169.12971)"
       id="g4554">
      <path
         style="fill:none;stroke:#0000ff;stroke-width:1px;stroke-linecap:butt;stroke-linejoin:miter;stroke-opacity:1"
         d="m 415,317.36218 5,5"
         id="path4556"
         inkscape:connector-curvature="0" />
      <path
         style="fill:none;stroke:#0000ff;stroke-width:1px;stroke-linecap:butt;stroke-linejoin:miter;stroke-opacity:1"
         d="m 420,317.36218 -5,5"
         id="path4558"
         inkscape:connector-curvature="0" />
    </g>
    <g
       id="g4560"
       transform="matrix(0.49,0,0,0.49,230.925,169.12971)">
      <path
         inkscape:connector-curvature="0"
         id="path4562"
         d="m 415,317.36218 5,5"
         style="fill:none;stroke:#0000ff;stroke-width:1px;stroke-linecap:butt;stroke-linejoin:miter;stroke-opacity:1" />
      <path
         inkscape:connector-curvature="0"
         id="path4564"
         d="m 420,317.36218 -5,5"
         style="fill:none;stroke:#0000ff;stroke-width:1px;stroke-linecap:butt;stroke-linejoin:miter;stroke-opacity:1" />
    </g>
    <g
       transform="matrix(0.49,0,0,0.49,234.925,165.12971)"
       id="g4566">
      <path
         style="fill:none;stroke:#0000ff;stroke-width:1px;stroke-linecap:butt;stroke-linejoin:miter;stroke-opacity:1"
         d="m 415,317.36218 5,5"
         id="path4568"
         inkscape:connector-curvature="0" />
      <path
         style="fill:none;stroke:#0000ff;stroke-width:1px;stroke-linecap:butt;stroke-linejoin:miter;stroke-opacity:1"
         d="m 420,317.36218 -5,5"
         id="path4570"
         inkscape:connector-curvature="0" />
    </g>
    <g
       id="g4572"
       transform="matrix(0.49,0,0,0.49,232.925,175.12971)">
      <path
         inkscape:connector-curvature="0"
         id="path4574"
         d="m 415,317.36218 5,5"
         style="fill:none;stroke:#0000ff;stroke-width:1px;stroke-linecap:butt;stroke-linejoin:miter;stroke-opacity:1" />
      <path
         inkscape:connector-curvature="0"
         id="path4576"
         d="m 420,317.36218 -5,5"
         style="fill:none;stroke:#0000ff;stroke-width:1px;stroke-linecap:butt;stroke-linejoin:miter;stroke-opacity:1" />
    </g>
    <g
       transform="matrix(0.49,0,0,0.49,232.925,175.12971)"
       id="g4578">
      <path
         style="fill:none;stroke:#0000ff;stroke-width:1px;stroke-linecap:butt;stroke-linejoin:miter;stroke-opacity:1"
         d="m 415,317.36218 5,5"
         id="path4580"
         inkscape:connector-curvature="0" />
      <path
         style="fill:none;stroke:#0000ff;stroke-width:1px;stroke-linecap:butt;stroke-linejoin:miter;stroke-opacity:1"
         d="m 420,317.36218 -5,5"
         id="path4582"
         inkscape:connector-curvature="0" />
    </g>
    <path
       inkscape:connector-curvature="0"
       id="path4584"
       d="m 417,339.36218 25,-30"
       style="fill:none;stroke:#000000;stroke-width:0.5;stroke-linecap:butt;stroke-linejoin:miter;stroke-miterlimit:4;stroke-opacity:1;stroke-dasharray:1, 0.5;stroke-dashoffset:0" />
    <path
       sodipodi:nodetypes="cac"
       inkscape:connector-curvature="0"
       id="path4618"
       d="m 432,282.36218 c 0,0 10,5.28595 10,10 0,4.71405 -10,10 -10,10"
       style="stroke-linejoin:miter;marker-end:url(#Arrow1MendQ);stroke-opacity:1;stroke:#0000ff;stroke-linecap:butt;stroke-miterlimit:10.39999961999999911;stroke-dasharray:none;stroke-width:0.50000000000000000;fill:none" />
    <path
       style="stroke-linejoin:miter;marker-end:url(#Arrow1Mendb);stroke-opacity:1;stroke:#0000ff;stroke-linecap:butt;stroke-miterlimit:10.39999961999999911;stroke-dasharray:none;stroke-width:0.50000000000000000;fill:none"
       d="m 427.68296,302.47084 c 0,0 -10,-5.28595 -10,-10 0,-4.71405 10,-10 10,-10"
       id="path4812"
       inkscape:connector-curvature="0"
       sodipodi:nodetypes="cac" />
    <path
       inkscape:connector-curvature="0"
       id="path4818"
       d="m 320,327.36218 25,0"
       style="fill:none;stroke:#000000;stroke-width:1px;stroke-linecap:butt;stroke-linejoin:miter;stroke-opacity:1;marker-end:url(#Arrow1Mend)" />
    <path
       inkscape:connector-curvature="0"
       id="path5012"
       d="m 390,327.36218 20,0"
       style="stroke-linejoin:miter;marker-end:url(#Arrow1Mendt);stroke-opacity:1;stroke:#ff0000;stroke-linecap:butt;stroke-width:1px;fill:none" />
    <g
       transform="matrix(0.95,0,0,0.95,26.225,29.892221)"
       id="g5281">
      <path
         transform="matrix(1.0503585,0,0,1.0503585,-94.39763,28.834929)"
         d="m 420,304.86218 c 0,1.38071 -1.11929,2.5 -2.5,2.5 -1.38071,0 -2.5,-1.11929 -2.5,-2.5 0,-1.38071 1.11929,-2.5 2.5,-2.5 1.38071,0 2.5,1.11929 2.5,2.5 z"
         sodipodi:ry="2.5"
         sodipodi:rx="2.5"
         sodipodi:cy="304.86218"
         sodipodi:cx="417.5"
         id="path5253"
         style="fill:none;stroke:#000000;stroke-width:0.8433125;stroke-miterlimit:4;stroke-opacity:1;stroke-dasharray:none;stroke-dashoffset:0"
         sodipodi:type="arc" />
      <path
         sodipodi:type="arc"
         style="fill:none;stroke:#000000;stroke-width:0.8433125;stroke-miterlimit:4;stroke-opacity:1;stroke-dasharray:none;stroke-dashoffset:0"
         id="path5255"
         sodipodi:cx="417.5"
         sodipodi:cy="304.86218"
         sodipodi:rx="2.5"
         sodipodi:ry="2.5"
         d="m 420,304.86218 c 0,1.38071 -1.11929,2.5 -2.5,2.5 -1.38071,0 -2.5,-1.11929 -2.5,-2.5 0,-1.38071 1.11929,-2.5 2.5,-2.5 1.38071,0 2.5,1.11929 2.5,2.5 z"
         transform="matrix(1.0503585,0,0,1.0503585,-80.225142,28.772026)" />
      <path
         transform="matrix(1.0503585,0,0,1.0503585,-67.824215,28.834929)"
         d="m 420,304.86218 c 0,1.38071 -1.11929,2.5 -2.5,2.5 -1.38071,0 -2.5,-1.11929 -2.5,-2.5 0,-1.38071 1.11929,-2.5 2.5,-2.5 1.38071,0 2.5,1.11929 2.5,2.5 z"
         sodipodi:ry="2.5"
         sodipodi:rx="2.5"
         sodipodi:cy="304.86218"
         sodipodi:cx="417.5"
         id="path5257"
         style="fill:none;stroke:#000000;stroke-width:0.8433125;stroke-miterlimit:4;stroke-opacity:1;stroke-dasharray:none;stroke-dashoffset:0"
         sodipodi:type="arc" />
      <path
         sodipodi:type="arc"
         style="fill:none;stroke:#000000;stroke-width:0.8433125;stroke-miterlimit:4;stroke-opacity:1;stroke-dasharray:none;stroke-dashoffset:0"
         id="path5259"
         sodipodi:cx="417.5"
         sodipodi:cy="304.86218"
         sodipodi:rx="2.5"
         sodipodi:ry="2.5"
         d="m 420,304.86218 c 0,1.38071 -1.11929,2.5 -2.5,2.5 -1.38071,0 -2.5,-1.11929 -2.5,-2.5 0,-1.38071 1.11929,-2.5 2.5,-2.5 1.38071,0 2.5,1.11929 2.5,2.5 z"
         transform="matrix(1.0503585,0,0,1.0503585,-55.423298,28.834929)" />
      <path
         sodipodi:type="arc"
         style="fill:none;stroke:#000000;stroke-width:0.8433125;stroke-miterlimit:4;stroke-opacity:1;stroke-dasharray:none;stroke-dashoffset:0"
         id="path5261"
         sodipodi:cx="417.5"
         sodipodi:cy="304.86218"
         sodipodi:rx="2.5"
         sodipodi:ry="2.5"
         d="m 420,304.86218 c 0,1.38071 -1.11929,2.5 -2.5,2.5 -1.38071,0 -2.5,-1.11929 -2.5,-2.5 0,-1.38071 1.11929,-2.5 2.5,-2.5 1.38071,0 2.5,1.11929 2.5,2.5 z"
         transform="matrix(1.0503585,0,0,1.0503585,-99.712313,46.487631)" />
      <path
         transform="matrix(1.0503585,0,0,1.0503585,-87.311386,46.487631)"
         d="m 420,304.86218 c 0,1.38071 -1.11929,2.5 -2.5,2.5 -1.38071,0 -2.5,-1.11929 -2.5,-2.5 0,-1.38071 1.11929,-2.5 2.5,-2.5 1.38071,0 2.5,1.11929 2.5,2.5 z"
         sodipodi:ry="2.5"
         sodipodi:rx="2.5"
         sodipodi:cy="304.86218"
         sodipodi:cx="417.5"
         id="path5263"
         style="fill:none;stroke:#000000;stroke-width:0.8433125;stroke-miterlimit:4;stroke-opacity:1;stroke-dasharray:none;stroke-dashoffset:0"
         sodipodi:type="arc" />
      <path
         sodipodi:type="arc"
         style="fill:none;stroke:#000000;stroke-width:0.8433125;stroke-miterlimit:4;stroke-opacity:1;stroke-dasharray:none;stroke-dashoffset:0"
         id="path5265"
         sodipodi:cx="417.5"
         sodipodi:cy="304.86218"
         sodipodi:rx="2.5"
         sodipodi:ry="2.5"
         d="m 420,304.86218 c 0,1.38071 -1.11929,2.5 -2.5,2.5 -1.38071,0 -2.5,-1.11929 -2.5,-2.5 0,-1.38071 1.11929,-2.5 2.5,-2.5 1.38071,0 2.5,1.11929 2.5,2.5 z"
         transform="matrix(1.0503585,0,0,1.0503585,-74.910459,46.487631)" />
      <path
         transform="matrix(1.0503585,0,0,1.0503585,-62.509532,46.487631)"
         d="m 420,304.86218 c 0,1.38071 -1.11929,2.5 -2.5,2.5 -1.38071,0 -2.5,-1.11929 -2.5,-2.5 0,-1.38071 1.11929,-2.5 2.5,-2.5 1.38071,0 2.5,1.11929 2.5,2.5 z"
         sodipodi:ry="2.5"
         sodipodi:rx="2.5"
         sodipodi:cy="304.86218"
         sodipodi:cx="417.5"
         id="path5267"
         style="fill:none;stroke:#000000;stroke-width:0.8433125;stroke-miterlimit:4;stroke-opacity:1;stroke-dasharray:none;stroke-dashoffset:0"
         sodipodi:type="arc" />
      <path
         sodipodi:type="arc"
         style="fill:none;stroke:#000000;stroke-width:0.8433125;stroke-miterlimit:4;stroke-opacity:1;stroke-dasharray:none;stroke-dashoffset:0"
         id="path5269"
         sodipodi:cx="417.5"
         sodipodi:cy="304.86218"
         sodipodi:rx="2.5"
         sodipodi:ry="2.5"
         d="m 420,304.86218 c 0,1.38071 -1.11929,2.5 -2.5,2.5 -1.38071,0 -2.5,-1.11929 -2.5,-2.5 0,-1.38071 1.11929,-2.5 2.5,-2.5 1.38071,0 2.5,1.11929 2.5,2.5 z"
         transform="matrix(1.0503585,0,0,1.0503585,-48.337054,46.487631)" />
      <path
         style="fill:none;stroke:#000000;stroke-width:0.53146833;stroke-linecap:butt;stroke-linejoin:miter;stroke-miterlimit:4;stroke-opacity:1;stroke-dasharray:none"
         d="m 338.81237,364.07635 5.31468,-12.40093"
         id="path5271"
         inkscape:connector-curvature="0" />
      <path
         style="fill:none;stroke:#000000;stroke-width:0.53146833;stroke-linecap:butt;stroke-linejoin:miter;stroke-miterlimit:4;stroke-opacity:1;stroke-dasharray:none"
         d="m 344.12705,351.67542 7.08625,12.40093 7.08624,-12.40093 5.31469,12.40093 7.08624,-12.40093 5.31468,12.40093 7.08625,-12.40093 7.08624,12.40093 -19.48717,-12.40093 -19.48717,12.40093 31.8881,-12.40093 -19.48717,12.40093 z"
         id="path5277"
         inkscape:connector-curvature="0" />
      <path
         style="fill:none;stroke:#000000;stroke-width:0.53146833;stroke-linecap:butt;stroke-linejoin:miter;stroke-miterlimit:4;stroke-opacity:1;stroke-dasharray:none"
         d="m 358.29954,351.67542 31.8881,12.40093 -46.06059,-12.40093 31.8881,12.40093 -17.71561,-12.40093 -19.48717,12.40093 44.28903,-12.40093"
         id="path5279"
         inkscape:connector-curvature="0" />
    </g>
    <path
       inkscape:connector-curvature="0"
       id="path5295"
       d="m 320,327.36218 20,40"
       style="stroke-linejoin:miter;marker-end:url(#Arrow1Mend1);stroke-opacity:1;stroke:#ff0000;stroke-linecap:butt;stroke-width:1px;fill:none" />
    <path
       inkscape:connector-curvature="0"
       id="path5683"
       d="m 400,367.36218 10,-30"
       style="stroke-linejoin:miter;marker-end:url(#Arrow1Mendj);stroke-opacity:1;stroke:#ff0000;stroke-linecap:butt;stroke-width:1px;fill:none" />
    <text
       transform="scale(1.0276694,0.97307559)"
       sodipodi:linespacing="125%"
       id="text9776"
       y="333.56464"
       x="314.25403"
       style="font-size:7.05017281px;font-style:normal;font-weight:normal;line-height:125%;letter-spacing:0px;word-spacing:0px;fill:#000000;fill-opacity:1;stroke:none;font-family:Sans"
       xml:space="preserve"><tspan
         y="333.56464"
         x="314.25403"
         id="tspan9778"
         sodipodi:role="line">(1a)</tspan></text>
    <text
       xml:space="preserve"
       style="font-size:7.05017281000000029px;font-style:normal;font-weight:normal;line-height:125%;letter-spacing:0px;word-spacing:0px;fill:#ff0000;fill-opacity:1;stroke:none;font-family:Sans"
       x="306.46954"
       y="364.39456"
       id="text9780"
       sodipodi:linespacing="125%"
       transform="scale(1.0276694,0.97307559)"><tspan
         sodipodi:role="line"
         id="tspan9782"
         x="306.46954"
         y="364.39456">(1b)</tspan></text>
    <text
       transform="scale(1.0276694,0.97307559)"
       sodipodi:linespacing="125%"
       id="text9784"
       y="347.95193"
       x="384.31619"
       style="font-size:7.05017281000000029px;font-style:normal;font-weight:normal;line-height:125%;letter-spacing:0px;word-spacing:0px;fill:#ff0000;fill-opacity:1;stroke:none;font-family:Sans"
       xml:space="preserve"><tspan
         y="347.95193"
         x="384.31619"
         id="tspan9786"
         sodipodi:role="line">(2)</tspan></text>
    <text
       xml:space="preserve"
       style="font-size:7.05017281000000029px;font-style:normal;font-weight:normal;line-height:125%;letter-spacing:0px;word-spacing:0px;fill:#0000ff;fill-opacity:1;stroke:none;font-family:Sans"
       x="413.5087"
       y="302.73471"
       id="text9788"
       sodipodi:linespacing="125%"
       transform="scale(1.0276694,0.97307559)"><tspan
         sodipodi:role="line"
         id="tspan9790"
         x="413.5087"
         y="302.73471">(3)</tspan></text>
    <path
       sodipodi:nodetypes="caaac"
       inkscape:connector-curvature="0"
       id="path9811"
       d="m 345,332.36218 c 0,0 -6.9204,-1.27561 -10,0 -2.1776,0.90199 -4.37083,2.7285 -5,5 -1.83433,6.6225 2.61584,13.555 5,20 1.29299,3.49529 5,10 5,10"
       style="stroke-linejoin:miter;marker-end:url(#Arrow1Mend7);stroke-opacity:1;stroke:#ff0000;stroke-linecap:butt;stroke-width:1px;fill:none" />
  </g>
</svg>
