<?xml version="1.0" encoding="UTF-8" standalone="no"?>
<!-- Created with Inkscape (http://www.inkscape.org/) -->

<svg
   xmlns:dc="http://purl.org/dc/elements/1.1/"
   xmlns:cc="http://creativecommons.org/ns#"
   xmlns:rdf="http://www.w3.org/1999/02/22-rdf-syntax-ns#"
   xmlns:svg="http://www.w3.org/2000/svg"
   xmlns="http://www.w3.org/2000/svg"
   xmlns:sodipodi="http://sodipodi.sourceforge.net/DTD/sodipodi-0.dtd"
   xmlns:inkscape="http://www.inkscape.org/namespaces/inkscape"
   width="210mm"
   height="297mm"
   id="svg7800"
   version="1.1"
   inkscape:version="0.48.2 r9819"
   sodipodi:docname="sparsification.svg">
  <defs
     id="defs3">
    <marker
       inkscape:stockid="Arrow2Send"
       orient="auto"
       refY="0.0"
       refX="0.0"
       id="Arrow2Send"
       style="overflow:visible;">
      <path
         id="path4324"
         style="font-size:12.0;fill-rule:evenodd;stroke-width:0.62500000;stroke-linejoin:round;"
         d="M 8.7185878,4.0337352 L -2.2072895,0.016013256 L 8.7185884,-4.0017078 C 6.9730900,-1.6296469 6.9831476,1.6157441 8.7185878,4.0337352 z "
         transform="scale(0.3) rotate(180) translate(-2.3,0)" />
    </marker>
    <marker
       inkscape:stockid="Arrow1Mend"
       orient="auto"
       refY="0.0"
       refX="0.0"
       id="Arrow1Mend"
       style="overflow:visible;">
      <path
         id="path4300"
         d="M 0.0,0.0 L 5.0,-5.0 L -12.5,0.0 L 5.0,5.0 L 0.0,0.0 z "
         style="fill-rule:evenodd;stroke:#000000;stroke-width:1.0pt;marker-start:none;"
         transform="scale(0.4) rotate(180) translate(10,0)" />
    </marker>
    <marker
       inkscape:stockid="Arrow2Mend"
       orient="auto"
       refY="0.0"
       refX="0.0"
       id="Arrow2Mend"
       style="overflow:visible;">
      <path
         id="path4318"
         style="font-size:12.0;fill-rule:evenodd;stroke-width:0.62500000;stroke-linejoin:round;"
         d="M 8.7185878,4.0337352 L -2.2072895,0.016013256 L 8.7185884,-4.0017078 C 6.9730900,-1.6296469 6.9831476,1.6157441 8.7185878,4.0337352 z "
         transform="scale(0.6) rotate(180) translate(0,0)" />
    </marker>
    <marker
       inkscape:stockid="Arrow2Mstart"
       orient="auto"
       refY="0.0"
       refX="0.0"
       id="Arrow2Mstart"
       style="overflow:visible">
      <path
         id="path4315"
         style="font-size:12.0;fill-rule:evenodd;stroke-width:0.62500000;stroke-linejoin:round"
         d="M 8.7185878,4.0337352 L -2.2072895,0.016013256 L 8.7185884,-4.0017078 C 6.9730900,-1.6296469 6.9831476,1.6157441 8.7185878,4.0337352 z "
         transform="scale(0.6) translate(0,0)" />
    </marker>
  </defs>
  <sodipodi:namedview
     inkscape:document-units="mm"
     id="base"
     pagecolor="#ffffff"
     bordercolor="#666666"
     borderopacity="1.0"
     inkscape:pageopacity="0.0"
     inkscape:pageshadow="2"
     inkscape:zoom="2.8284271"
     inkscape:cx="159.18107"
     inkscape:cy="687.26638"
     inkscape:current-layer="layer1"
     showgrid="true"
     inkscape:window-width="1174"
     inkscape:window-height="926"
     inkscape:window-x="68"
     inkscape:window-y="35"
     inkscape:window-maximized="0">
    <inkscape:grid
       type="xygrid"
       id="grid7806" />
  </sodipodi:namedview>
  <metadata
     id="metadata4">
    <rdf:RDF>
      <cc:Work
         rdf:about="">
        <dc:format>image/svg+xml</dc:format>
        <dc:type
           rdf:resource="http://purl.org/dc/dcmitype/StillImage" />
        <dc:title></dc:title>
      </cc:Work>
    </rdf:RDF>
  </metadata>
  <g
     inkscape:label="Layer 1"
     inkscape:groupmode="layer"
     id="layer1">
    <path
       style="fill:#969696;stroke:#000000;stroke-width:0.50000000000000000px;stroke-linecap:butt;stroke-linejoin:miter;stroke-opacity:1;fill-opacity:0.39215687"
       d="m 129.59156,396.45414 c -5.38787,-6.57215 -20.17256,1.99414 -25,-5 -5.75879,-8.34351 -2.73545,-23.44709 5,-30 8.9019,-7.54104 24.56501,-5.21749 35,0 7.45356,3.72678 8.05763,15.39044 15,20 5.72482,3.80114 16.87157,-1.11843 20,5 4.08601,7.99124 -3.23836,19.09782 -10,25 -5.177,4.51895 -13.12816,5 -20,5 -6.87185,0 -15.77099,0.41642 -20,-5 -3.07706,-3.94103 3.16994,-11.13329 0,-15 z"
       id="path7808"
       inkscape:connector-curvature="0"
       sodipodi:nodetypes="aaaaaaaaaa" />
    <path
       sodipodi:type="arc"
       style="fill:#ff00ff;fill-opacity:1;stroke:#ff00ff;stroke-width:1.77165353000000003;stroke-miterlimit:4;stroke-opacity:1;stroke-dasharray:none;stroke-dashoffset:0"
       id="path8328"
       sodipodi:cx="130"
       sodipodi:cy="307.36218"
       sodipodi:rx="5"
       sodipodi:ry="5"
       d="m 135,307.36218 a 5,5 0 1 1 -10,0 5,5 0 1 1 10,0 z"
       transform="matrix(0.33,0,0,0.33,102.1,282.58266)" />
    <path
       style="fill:none;stroke:#000000;stroke-width:0.49960631;stroke-linecap:butt;stroke-linejoin:miter;stroke-miterlimit:4;stroke-opacity:1;stroke-dasharray:none"
       d="m 139.86049,330.20449 c -5.65941,-4.92149 -14.23853,-9.27201 -15.04707,-16.7283 -0.42614,-3.92981 2.97557,-7.60486 5.85631,-10.31158 6.63196,-6.23133 15.47149,-12.82674 24.53203,-11.97881 6.34605,0.59389 11.36744,6.43792 15.32727,11.4324 4.91156,6.19489 12.07926,14.28095 9.47097,21.74398 -3.4008,9.7306 -17.02672,15.03128 -27.32008,14.48666 -5.14669,-0.27231 -8.93037,-5.26238 -12.81943,-8.64435 z"
       id="path8332"
       inkscape:connector-curvature="0"
       sodipodi:nodetypes="aaaaaaaa" />
    <path
       transform="matrix(0.28580139,0.16497747,-0.16497747,0.28580139,180.72877,215.49958)"
       d="m 135,307.36218 a 5,5 0 1 1 -10,0 5,5 0 1 1 10,0 z"
       sodipodi:ry="5"
       sodipodi:rx="5"
       sodipodi:cy="307.36218"
       sodipodi:cx="130"
       id="path8348"
       style="fill:none;stroke:#ff00ff;stroke-width:1.77165353;stroke-miterlimit:4;stroke-opacity:1;stroke-dasharray:none;stroke-dashoffset:0"
       sodipodi:type="arc" />
    <path
       style="fill:none;stroke:#000000;stroke-width:0.9992126;stroke-linecap:butt;stroke-linejoin:miter;stroke-opacity:1;stroke-miterlimit:4;stroke-dasharray:0.9992126,0.9992126;stroke-dashoffset:0"
       d="m 118,379.36218 c -2.75635,-3.82423 -10,-5.28595 -10,-10 0,-4.71405 5.38223,-9.05217 10,-10 8.79198,-1.80462 23.19538,1.20802 25,10 0.94783,4.61777 -8.19601,5.64479 -10,10 -1.27561,3.0796 2.35702,7.64298 0,10 -2.35702,2.35702 -7.1645,1.75244 -10,0 -3.17019,-1.95928 -2.82091,-6.97668 -5,-10 z"
       id="path9525"
       inkscape:connector-curvature="0"
       sodipodi:nodetypes="aaaaaaaa" />
    <path
       transform="matrix(0.33,0,0,0.33,92.1,270.58266)"
       d="m 135,307.36218 a 5,5 0 1 1 -10,0 5,5 0 1 1 10,0 z"
       sodipodi:ry="5"
       sodipodi:rx="5"
       sodipodi:cy="307.36218"
       sodipodi:cx="130"
       id="path9527"
       style="fill:#0000ff;fill-opacity:1;stroke:#0000ff;stroke-width:1.77165353;stroke-miterlimit:4;stroke-opacity:1;stroke-dasharray:none;stroke-dashoffset:0"
       sodipodi:type="arc" />
    <path
       style="fill:none;stroke:#000000;stroke-width:1;stroke-linecap:butt;stroke-linejoin:miter;stroke-miterlimit:4;stroke-opacity:1;stroke-dasharray:1, 1;stroke-dashoffset:0"
       d="m 139,323.36218 c -4.35521,-1.80399 -10.75511,-5.34683 -10,-10 0.59696,-3.67866 6.2826,-4.73581 10,-5 5.2572,-0.37362 12.98308,0.13073 15,5 1.42618,3.4431 -5,10 -5,10 l 0,0 c 0,0 -6.9204,1.27561 -10,0 z"
       id="path9529"
       inkscape:connector-curvature="0"
       sodipodi:nodetypes="aaaacaa" />
    <path
       sodipodi:type="arc"
       style="fill:none;stroke:#0000ff;stroke-width:1.77165353;stroke-miterlimit:4;stroke-opacity:1;stroke-dasharray:none;stroke-dashoffset:0"
       id="path9531"
       sodipodi:cx="130"
       sodipodi:cy="307.36218"
       sodipodi:rx="5"
       sodipodi:ry="5"
       d="m 135,307.36218 a 5,5 0 1 1 -10,0 5,5 0 1 1 10,0 z"
       transform="matrix(0.28580139,0.16497747,-0.16497747,0.28580139,164.72877,205.49958)" />
    <path
       style="fill:none;stroke:#000000;stroke-width:0.56692913;stroke-linecap:butt;stroke-linejoin:miter;stroke-opacity:1;stroke-miterlimit:4;stroke-dasharray:none;marker-end:url(#Arrow2Mend)"
       d="m 145,382.36218 c 0,0 25.46984,-12.79664 30,-25 3.52817,-9.5042 -5,-30 -5,-30"
       id="path9533"
       inkscape:connector-curvature="0"
       sodipodi:nodetypes="cac" />
    <path
       style="fill:none;stroke:#ff0000;stroke-width:1.41732283000000003;stroke-linecap:butt;stroke-linejoin:miter;stroke-opacity:1;marker-end:url(#Arrow2Send);stroke-miterlimit:4;stroke-dasharray:2.83464567000000001, 1.41732283000000003;stroke-dashoffset:0"
       d="m 165,322.36218 -10,-5"
       id="path9721"
       inkscape:connector-curvature="0" />
    <path
       style="fill:none;stroke:#000000;stroke-width:0.56692913;stroke-linecap:butt;stroke-linejoin:miter;stroke-opacity:1;stroke-miterlimit:4;stroke-dasharray:none;marker-end:url(#Arrow2Mend)"
       d="m 148,315.36218 c 0,0 -26.31064,7.84829 -30,18.33334 -4.37131,12.42309 15,36.66666 15,36.66666"
       id="path10285"
       inkscape:connector-curvature="0"
       sodipodi:nodetypes="cac" />
  </g>
</svg>
