<?xml version="1.0" encoding="UTF-8" standalone="no"?>
<!-- Created with Inkscape (http://www.inkscape.org/) -->

<svg
   xmlns:dc="http://purl.org/dc/elements/1.1/"
   xmlns:cc="http://creativecommons.org/ns#"
   xmlns:rdf="http://www.w3.org/1999/02/22-rdf-syntax-ns#"
   xmlns:svg="http://www.w3.org/2000/svg"
   xmlns="http://www.w3.org/2000/svg"
   xmlns:sodipodi="http://sodipodi.sourceforge.net/DTD/sodipodi-0.dtd"
   xmlns:inkscape="http://www.inkscape.org/namespaces/inkscape"
   width="744.09448819"
   height="1052.3622047"
   id="svg7023"
   version="1.1"
   inkscape:version="0.48.3.1 r9886"
   sodipodi:docname="New document 39">
  <sodipodi:namedview
     id="base"
     pagecolor="#ffffff"
     bordercolor="#666666"
     borderopacity="1.0"
     inkscape:pageopacity="0.0"
     inkscape:pageshadow="2"
     inkscape:zoom="2.8"
     inkscape:cx="493.8593"
     inkscape:cy="698.89468"
     inkscape:document-units="px"
     inkscape:current-layer="layer1"
     showgrid="true"
     inkscape:window-width="1327"
     inkscape:window-height="1116"
     inkscape:window-x="85"
     inkscape:window-y="31"
     inkscape:window-maximized="0">
    <inkscape:grid
       id="grid7031"
       type="xygrid" />
  </sodipodi:namedview>
  <defs
     id="defs7025">
    <marker
       style="overflow:visible;"
       id="Arrow1Lend"
       refX="0.0"
       refY="0.0"
       orient="auto"
       inkscape:stockid="Arrow1Lend">
      <path
         transform="scale(0.8) rotate(180) translate(12.5,0)"
         style="fill-rule:evenodd;stroke:#000000;stroke-width:1.0pt;"
         d="M 0.0,0.0 L 5.0,-5.0 L -12.5,0.0 L 5.0,5.0 L 0.0,0.0 z "
         id="path3843" />
    </marker>
    <marker
       style="overflow:visible;"
       id="Arrow1LendU"
       refX="0.0"
       refY="0.0"
       orient="auto"
       inkscape:stockid="Arrow1LendU">
      <path
         transform="scale(0.8) rotate(180) translate(12.5,0)"
         style="stroke:#ff0000;stroke-width:1.0pt;fill:#ff0000;fill-rule:evenodd"
         d="M 0.0,0.0 L 5.0,-5.0 L -12.5,0.0 L 5.0,5.0 L 0.0,0.0 z "
         id="path7826" />
    </marker>
    <marker
       style="overflow:visible;"
       id="Arrow1Lend6"
       refX="0.0"
       refY="0.0"
       orient="auto"
       inkscape:stockid="Arrow1Lend6">
      <path
         transform="scale(0.8) rotate(180) translate(12.5,0)"
         style="stroke:#0000ff;stroke-width:1.0pt;fill:#0000ff;fill-rule:evenodd"
         d="M 0.0,0.0 L 5.0,-5.0 L -12.5,0.0 L 5.0,5.0 L 0.0,0.0 z "
         id="path7829" />
    </marker>
  </defs>
  <metadata
     id="metadata7028">
    <rdf:RDF>
      <cc:Work
         rdf:about="">
        <dc:format>image/svg+xml</dc:format>
        <dc:type
           rdf:resource="http://purl.org/dc/dcmitype/StillImage" />
        <dc:title></dc:title>
      </cc:Work>
    </rdf:RDF>
  </metadata>
  <g
     id="layer1"
     inkscape:groupmode="layer"
     inkscape:label="Layer 1">
    <text
       xml:space="preserve"
       style="font-size:17px;font-style:normal;font-variant:normal;font-weight:normal;font-stretch:normal;text-align:start;line-height:125%;letter-spacing:0px;word-spacing:0px;writing-mode:lr-tb;text-anchor:start;fill:#ff0000;fill-opacity:1;stroke:none;font-family:Sans;-inkscape-font-specification:Sans"
       x="376"
       y="357.36218"
       id="text4466"
       sodipodi:linespacing="125%"><tspan
         sodipodi:role="line"
         id="tspan4468"
         x="376"
         y="357.36218">Learning</tspan></text>
    <text
       sodipodi:linespacing="125%"
       id="text4972"
       y="357.36218"
       x="550"
       style="font-size:17px;font-style:normal;font-variant:normal;font-weight:normal;font-stretch:normal;text-align:start;line-height:125%;letter-spacing:0px;word-spacing:0px;writing-mode:lr-tb;text-anchor:start;fill:#0000ff;fill-opacity:1;stroke:none;font-family:Sans;-inkscape-font-specification:Sans"
       xml:space="preserve"><tspan
         y="357.36218"
         x="550"
         id="tspan4974"
         sodipodi:role="line">Inference</tspan></text>
    <g
       id="g5711"
       transform="matrix(0.81838279,0,0,0.42934407,248.22273,207.02245)">
      <g
         word-spacing="normal"
         letter-spacing="normal"
         font-size-adjust="none"
         font-stretch="normal"
         font-weight="normal"
         font-variant="normal"
         font-style="normal"
         stroke-miterlimit="10.433"
         xml:space="preserve"
         transform="matrix(1.0629921,0,0,-1.0629921,-186.02362,789.27165)"
         id="g5713"
         style="font-style:normal;font-variant:normal;font-weight:normal;font-stretch:normal;letter-spacing:normal;word-spacing:normal;text-anchor:start;fill:none;stroke:#000000;stroke-linecap:butt;stroke-linejoin:miter;stroke-miterlimit:10.43299961;stroke-opacity:1;stroke-dasharray:none;stroke-dashoffset:0"><path
           id="path5715"
           d="m 478.19,431.11 0,0.31 -0.01,0.34 -0.02,0.36 -0.02,0.37 -0.03,0.39 -0.04,0.39 -0.04,0.41 -0.06,0.41 -0.07,0.42 -0.07,0.43 -0.09,0.42 -0.1,0.43 -0.12,0.42 -0.12,0.42 -0.14,0.41 -0.16,0.41 -0.17,0.4 -0.18,0.38 -0.2,0.37 -0.22,0.36 -0.23,0.34 -0.25,0.32 -0.28,0.3 -0.29,0.27 -0.31,0.25 -0.16,0.12 -0.17,0.1 -0.17,0.1 -0.18,0.1 -0.18,0.08 -0.19,0.08 -0.19,0.07 -0.2,0.06 -0.21,0.05 -0.21,0.05 -0.22,0.03 -0.22,0.02 -0.23,0.02 -0.23,0 -0.05,-1.09 c 2.44,0 2.73,-3.19 2.73,-6.03 0,-2.44 -0.39,-4.99 -1.59,-9.92 h -10.41 c 0.85,3.2 1.85,7.18 3.83,10.72 1.36,2.43 3.19,5.23 5.44,5.23 l 0.05,1.09 c -6.92,0 -14.6,-14.04 -14.6,-25.45 0,-4.69 1.44,-10.22 5.99,-10.22 v 1.1 c -1.66,0 -2.71,1.45 -2.71,6.07 0,2.1 0.3,4.99 1.6,9.86 h 10.37 c -0.54,-2.28 -1.59,-6.51 -3.5,-10.11 -1.73,-3.39 -3.62,-5.82 -5.76,-5.82 v -1.1 c 7.01,0 14.59,14.3 14.59,25.46 z"
           inkscape:connector-curvature="0"
           style="fill:#000000;stroke-width:0" /></g>    </g>
    <path
       sodipodi:nodetypes="caaaac"
       inkscape:connector-curvature="0"
       id="path7633"
       d="m 415,342.36218 c 0,0 10.58548,-22.52931 20,-30 11.15471,-8.85157 25.9885,-12.45923 40,-15 16.39923,-2.97375 33.54854,-2.6697 50,0 15.60722,2.5327 32.43458,5.40259 45,15 9.55119,7.29516 20,30 20,30"
       style="stroke-linejoin:miter;marker-end:url(#Arrow1LendU);stroke-opacity:1;stroke-dashoffset:0;stroke:#ff0000;stroke-linecap:butt;stroke-miterlimit:4;stroke-dasharray:3.89999985999999987, 1.29999994999999990;stroke-width:1.29999994999999990;fill:none" />
    <path
       style="stroke-linejoin:miter;marker-end:url(#Arrow1Lend6);stroke-opacity:1;stroke-dashoffset:0;stroke:#0000ff;stroke-linecap:butt;stroke-miterlimit:4;stroke-dasharray:3.89999985999999987, 1.29999994999999990;stroke-width:1.29999994999999990;fill:none"
       d="m 590,363.24435 c 0,0 -10.58548,22.52931 -20,30 -11.15471,8.85157 -25.9885,12.45923 -40,15 -16.39923,2.97375 -33.54854,2.6697 -50,0 -15.60722,-2.5327 -32.43458,-5.40259 -45,-15 -9.55119,-7.29516 -20,-30 -20,-30"
       id="path7819"
       inkscape:connector-curvature="0"
       sodipodi:nodetypes="caaaac" />
  </g>
</svg>
